<svg viewBox="0 0 128 128" fill="none" xmlns="http://www.w3.org/2000/svg"><path d="M36 94c-11 0-20-8-20-19 0-9 6-16 15-18 3-16 18-27 36-27 14 0 25 7 31 19 11 1 20 9 20 21 0 14-11 24-25 24H36z" fill="#CBD8E6" stroke="#9FB6CE" stroke-width="4" stroke-linejoin="round"/><g stroke="#BAE6FD" stroke-width="4.3" stroke-linecap="round"><path d="M42 92v11M36 97h12"/><path d="M54 91v12M47 97h14"/><path d="M66 91v12M59 97h14"/><path d="M78 91v12M71 97h14"/><path d="M90 92v11M84 97h12"/></g><g fill="none" stroke="#D6ECFF" stroke-width="4" stroke-linecap="round"><path d="M30 84h22"/><path d="M54 88h24"/><path d="M80 84h18"/></g></svg>

