<svg viewBox="0 0 128 128" fill="none" xmlns="http://www.w3.org/2000/svg">
<g id="extreme-hail" clip-path="url(#clip0_1858_8736)">
<g id="Sky">
<g id="Clouds">
<g id="Secondary Cloud">
<path id="Cloud" d="M83.8392 48.6934C86.2444 44.9584 91.2146 43.529 95.3177 45.1768C99.3609 46.8006 101.814 51.1888 100.71 55.4365L100.54 56.0898L101.215 56.0615C104.496 55.924 107.5 58.4646 107.5 61.7744C107.5 64.9759 104.669 67.4999 101.489 67.5H74.9769C71.7679 67.5008 68.8449 65.1182 68.5287 61.9072C68.2136 58.7068 70.6168 55.8414 73.764 55.2705L74.2552 55.1816L74.1674 54.6904C73.7734 52.4931 74.8117 50.2493 76.6849 49.0273C78.6105 47.7713 81.177 47.7069 83.1683 48.8564L83.5814 49.0938L83.8392 48.6934Z" fill="url(#paint0_linear_1858_8736)" stroke="#94A3B8" stroke-miterlimit="10"/>
</g>
<g id="Cloud_2">
<path id="Cloud_3" d="M55.2623 48.4746C60.1227 40.6111 70.2975 37.38 78.8151 40.9434C87.3214 44.5023 92.138 54.0026 89.903 62.9648L89.7418 63.6143L90.4108 63.585C97.4203 63.2791 103.5 68.9917 103.5 76.0283C103.5 82.8395 97.7717 88.4997 90.9772 88.5H37.9537C31.1275 88.5018 25.2029 83.1709 24.5592 76.3604C23.9158 69.5518 28.7369 63.2124 35.443 61.9453L35.9264 61.8535L35.8424 61.3691C35.0256 56.6239 37.1258 51.7168 41.1051 49.0127C45.0951 46.3014 50.4459 46.1537 54.5797 48.6396L55.0026 48.8945L55.2623 48.4746Z" fill="url(#paint1_linear_1858_8736)" stroke="#64748B" stroke-miterlimit="10"/>
</g>
</g>
</g>
<g id="Precipitation">
<g id="Ice balls">
<path id="Ice Ball 1" d="M52 86C51.4067 86 50.8266 86.1759 50.3333 86.5056C49.8399 86.8352 49.4554 87.3038 49.2283 87.852C49.0013 88.4001 48.9419 89.0033 49.0577 89.5853C49.1734 90.1672 49.4591 90.7018 49.8787 91.1213C50.2983 91.5409 50.8329 91.8266 51.4148 91.9424C51.9968 92.0581 52.5998 91.9987 53.148 91.7716C53.6961 91.5446 54.1647 91.1601 54.4944 90.6667C54.824 90.1734 55 89.5933 55 89C55 88.2044 54.6839 87.4413 54.1213 86.8787C53.5587 86.3161 52.7957 86 52 86Z" fill="#86C3DB" transform="translate(0, 8)"/>
<path id="Ice Ball 2" d="M64 86C63.4067 86 62.8266 86.1759 62.3333 86.5056C61.8399 86.8352 61.4554 87.3038 61.2283 87.852C61.0013 88.4001 60.9419 89.0033 61.0577 89.5853C61.1734 90.1672 61.4591 90.7018 61.8787 91.1213C62.2983 91.5409 62.8329 91.8266 63.4148 91.9424C63.9968 92.0581 64.5998 91.9987 65.148 91.7716C65.6961 91.5446 66.1647 91.1601 66.4944 90.6667C66.824 90.1734 67 89.5933 67 89C67 88.2044 66.6839 87.4413 66.1213 86.8787C65.5587 86.3161 64.7957 86 64 86Z" fill="#86C3DB" transform="translate(0, 0)"/>
<path id="Ice Ball 3" d="M76 86C75.4067 86 74.8266 86.1759 74.3333 86.5056C73.8399 86.8352 73.4554 87.3038 73.2283 87.852C73.0013 88.4001 72.9419 89.0033 73.0577 89.5853C73.1734 90.1672 73.4591 90.7018 73.8787 91.1213C74.2983 91.5409 74.8329 91.8266 75.4148 91.9424C75.9968 92.0581 76.5998 91.9987 77.148 91.7716C77.6961 91.5446 78.1647 91.1601 78.4944 90.6667C78.824 90.1734 79 89.5933 79 89C79 88.2044 78.6839 87.4413 78.1213 86.8787C77.5587 86.3161 76.7957 86 76 86Z" fill="#86C3DB" transform="translate(0, 8)"/>
</g>
</g>
</g>
<defs>
<linearGradient id="paint0_linear_1858_8736" x1="88.0002" y1="44" x2="88.0002" y2="68" gradientUnits="userSpaceOnUse">
<stop stop-color="#B0BCCD"/>
<stop offset="1" stop-color="#94A3B8"/>
</linearGradient>
<linearGradient id="paint1_linear_1858_8736" x1="64.0008" y1="39" x2="64.0008" y2="89" gradientUnits="userSpaceOnUse">
<stop stop-color="#7C8CA2"/>
<stop offset="1" stop-color="#64748B"/>
</linearGradient>
<clipPath id="clip0_1858_8736">
<rect width="128" height="128" fill="white"/>
</clipPath>
</defs>
</svg>