<svg viewBox="0 0 128 128" fill="none" xmlns="http://www.w3.org/2000/svg">
<g id="extreme-rain" clip-path="url(#clip0_1858_8382)">
<g id="Sky">
<g id="Clouds">
<g id="Secondary Cloud">
<path id="Cloud" d="M83.8392 48.6934C86.2444 44.9584 91.2146 43.529 95.3177 45.1768C99.3609 46.8006 101.814 51.1888 100.71 55.4365L100.54 56.0898L101.215 56.0615C104.496 55.924 107.5 58.4646 107.5 61.7744C107.5 64.9759 104.669 67.4999 101.489 67.5H74.9769C71.7679 67.5008 68.8449 65.1182 68.5287 61.9072C68.2136 58.7068 70.6168 55.8414 73.764 55.2705L74.2552 55.1816L74.1674 54.6904C73.7734 52.4931 74.8117 50.2493 76.6849 49.0273C78.6105 47.7713 81.177 47.7069 83.1683 48.8564L83.5814 49.0938L83.8392 48.6934Z" fill="url(#paint0_linear_1858_8382)" stroke="#94A3B8" stroke-miterlimit="10"/>
</g>
<g id="Cloud_2">
<path id="Cloud_3" d="M55.2623 48.4746C60.1227 40.6111 70.2975 37.38 78.8151 40.9434C87.3214 44.5023 92.138 54.0026 89.903 62.9648L89.7418 63.6143L90.4108 63.585C97.4203 63.2791 103.5 68.9917 103.5 76.0283C103.5 82.8395 97.7717 88.4997 90.9772 88.5H37.9537C31.1275 88.5018 25.2029 83.1709 24.5592 76.3604C23.9158 69.5518 28.7369 63.2124 35.443 61.9453L35.9264 61.8535L35.8424 61.3691C35.0256 56.6239 37.1258 51.7168 41.1051 49.0127C45.0951 46.3014 50.4459 46.1537 54.5797 48.6396L55.0026 48.8945L55.2623 48.4746Z" fill="url(#paint1_linear_1858_8382)" stroke="#64748B" stroke-miterlimit="10"/>
</g>
</g>
</g>
<g id="Precipitation">
<g id="Raindrops">
<path id="Raindrop 1" d="M52 83V95" stroke="#0A5AD4" stroke-width="4" stroke-linecap="round" transform="translate(0, 8)"/>
<path id="Raindrop 2" d="M64 83V95" stroke="#0A5AD4" stroke-width="4" stroke-linecap="round" transform="translate(0, 0)"/>
<path id="Raindrop 3" d="M76 83V95" stroke="#0A5AD4" stroke-width="4" stroke-linecap="round" transform="translate(0, 8)"/>
</g>
</g>
</g>
<defs>
<linearGradient id="paint0_linear_1858_8382" x1="88.0002" y1="44" x2="88.0002" y2="68" gradientUnits="userSpaceOnUse">
<stop stop-color="#B0BCCD"/>
<stop offset="1" stop-color="#94A3B8"/>
</linearGradient>
<linearGradient id="paint1_linear_1858_8382" x1="64.0008" y1="39" x2="64.0008" y2="89" gradientUnits="userSpaceOnUse">
<stop stop-color="#7C8CA2"/>
<stop offset="1" stop-color="#64748B"/>
</linearGradient>
<clipPath id="clip0_1858_8382">
<rect width="128" height="128" fill="white"/>
</clipPath>
</defs>
</svg>