<svg viewBox="0 0 128 128" fill="none" xmlns="http://www.w3.org/2000/svg"><path d="M36 94c-11 0-20-8-20-19 0-9 6-16 15-18 3-16 18-27 36-27 14 0 25 7 31 19 11 1 20 9 20 21 0 14-11 24-25 24H36z" fill="#EAF2FF" stroke="#94A3B8" stroke-width="4" stroke-linejoin="round"/><g stroke="#2563EB" stroke-width="4.5" stroke-linecap="round"><path d="M50 93v11"/><path d="M64 91v13"/><path d="M78 93v11"/></g><g stroke="#7DD3FC" stroke-width="4" stroke-linecap="round"><path d="M50 92v11M44 97h12"/><path d="M64 91v12M57 97h14"/><path d="M78 92v11M72 97h12"/></g></svg>
