<svg viewBox="0 0 128 128" fill="none" xmlns="http://www.w3.org/2000/svg">
<g id="overcast-day-hail" clip-path="url(#clip0_1858_8730)">
<g id="Sky">
<g id="Sun">
<circle id="Core" cx="39" cy="51" r="8.5" fill="url(#paint0_linear_1858_8730)" stroke="#F8AF18"/>
<g id="Rays">
<path d="M37.6875 31.3125C37.6875 30.5876 38.2751 30 39 30C39.7249 30 40.3125 30.5876 40.3125 31.3125V37.4375C40.3125 38.1624 39.7249 38.75 39 38.75C38.2751 38.75 37.6875 38.1624 37.6875 37.4375V31.3125Z" fill="#F8AF18"/>
<path d="M51.9931 36.1508C52.5056 35.6382 53.3367 35.6382 53.8492 36.1508C54.3618 36.6633 54.3618 37.4943 53.8492 38.0069L49.5182 42.3379C49.0056 42.8505 48.1746 42.8505 47.6621 42.3379C47.1495 41.8254 47.1495 40.9944 47.6621 40.4818L51.9931 36.1508Z" fill="#F8AF18"/>
<path d="M58.6875 49.6875C59.4124 49.6875 60 50.2751 60 51C60 51.7249 59.4124 52.3125 58.6875 52.3125H52.5625C51.8376 52.3125 51.25 51.7249 51.25 51C51.25 50.2751 51.8376 49.6875 52.5625 49.6875H58.6875Z" fill="#F8AF18"/>
<path d="M53.8492 63.9931C54.3618 64.5057 54.3618 65.3367 53.8492 65.8492C53.3367 66.3618 52.5056 66.3618 51.9931 65.8492L47.6621 61.5182C47.1495 61.0057 47.1495 60.1746 47.6621 59.6621C48.1746 59.1495 49.0057 59.1495 49.5182 59.6621L53.8492 63.9931Z" fill="#F8AF18"/>
<path d="M37.6875 64.5625C37.6875 63.8376 38.2751 63.25 39 63.25C39.7249 63.25 40.3125 63.8376 40.3125 64.5625V70.6875C40.3125 71.4124 39.7249 72 39 72C38.2751 72 37.6875 71.4124 37.6875 70.6875V64.5625Z" fill="#F8AF18"/>
<path d="M28.4818 59.6621C28.9943 59.1495 29.8254 59.1495 30.3379 59.6621C30.8505 60.1746 30.8505 61.0056 30.3379 61.5182L26.0069 65.8492C25.4943 66.3618 24.6633 66.3618 24.1508 65.8492C23.6382 65.3367 23.6382 64.5056 24.1508 63.9931L28.4818 59.6621Z" fill="#F8AF18"/>
<path d="M25.4375 49.6875C26.1624 49.6875 26.75 50.2751 26.75 51C26.75 51.7249 26.1624 52.3125 25.4375 52.3125H19.3125C18.5876 52.3125 18 51.7249 18 51C18 50.2751 18.5876 49.6875 19.3125 49.6875H25.4375Z" fill="#F8AF18"/>
<path d="M30.3379 40.4818C30.8505 40.9944 30.8505 41.8254 30.3379 42.3379C29.8254 42.8505 28.9944 42.8505 28.4818 42.3379L24.1508 38.0069C23.6382 37.4944 23.6382 36.6633 24.1508 36.1508C24.6633 35.6382 25.4944 35.6382 26.0069 36.1508L30.3379 40.4818Z" fill="#F8AF18"/>
</g>
</g>
<g id="Clouds">
<g id="Secondary Cloud">
<path id="Cloud" d="M83.8392 48.6934C86.2444 44.9584 91.2146 43.529 95.3177 45.1768C99.3609 46.8006 101.814 51.1888 100.71 55.4365L100.54 56.0898L101.215 56.0615C104.496 55.924 107.5 58.4646 107.5 61.7744C107.5 64.9759 104.669 67.4999 101.489 67.5H74.9769C71.7679 67.5008 68.8449 65.1182 68.5287 61.9072C68.2136 58.7068 70.6168 55.8414 73.764 55.2705L74.2552 55.1816L74.1674 54.6904C73.7734 52.4931 74.8117 50.2493 76.6849 49.0273C78.6105 47.7713 81.177 47.7069 83.1683 48.8564L83.5814 49.0938L83.8392 48.6934Z" fill="url(#paint1_linear_1858_8730)" stroke="#94A3B8" stroke-miterlimit="10"/>
</g>
<g id="Cloud_2">
<path id="Cloud_3" d="M55.2623 48.4746C60.1227 40.6111 70.2975 37.38 78.8151 40.9434C87.3214 44.5023 92.138 54.0026 89.903 62.9648L89.7418 63.6143L90.4108 63.585C97.4203 63.2791 103.5 68.9917 103.5 76.0283C103.5 82.8395 97.7717 88.4997 90.9772 88.5H37.9537C31.1275 88.5018 25.2029 83.1709 24.5592 76.3604C23.9158 69.5518 28.7369 63.2124 35.443 61.9453L35.9264 61.8535L35.8424 61.3691C35.0256 56.6239 37.1258 51.7168 41.1051 49.0127C45.0951 46.3014 50.4459 46.1537 54.5797 48.6396L55.0026 48.8945L55.2623 48.4746Z" fill="url(#paint2_linear_1858_8730)" stroke="#E6EFFC" stroke-miterlimit="10"/>
</g>
</g>
</g>
<g id="Precipitation">
<g id="Ice balls">
<path id="Ice Ball 1" d="M52 86C51.4067 86 50.8266 86.1759 50.3333 86.5056C49.8399 86.8352 49.4554 87.3038 49.2283 87.852C49.0013 88.4001 48.9419 89.0033 49.0577 89.5853C49.1734 90.1672 49.4591 90.7018 49.8787 91.1213C50.2983 91.5409 50.8329 91.8266 51.4148 91.9424C51.9968 92.0581 52.5998 91.9987 53.148 91.7716C53.6961 91.5446 54.1647 91.1601 54.4944 90.6667C54.824 90.1734 55 89.5933 55 89C55 88.2044 54.6839 87.4413 54.1213 86.8787C53.5587 86.3161 52.7957 86 52 86Z" fill="#86C3DB" transform="translate(0, 8)"/>
<path id="Ice Ball 2" d="M64 86C63.4067 86 62.8266 86.1759 62.3333 86.5056C61.8399 86.8352 61.4554 87.3038 61.2283 87.852C61.0013 88.4001 60.9419 89.0033 61.0577 89.5853C61.1734 90.1672 61.4591 90.7018 61.8787 91.1213C62.2983 91.5409 62.8329 91.8266 63.4148 91.9424C63.9968 92.0581 64.5998 91.9987 65.148 91.7716C65.6961 91.5446 66.1647 91.1601 66.4944 90.6667C66.824 90.1734 67 89.5933 67 89C67 88.2044 66.6839 87.4413 66.1213 86.8787C65.5587 86.3161 64.7957 86 64 86Z" fill="#86C3DB" transform="translate(0, 0)"/>
<path id="Ice Ball 3" d="M76 86C75.4067 86 74.8266 86.1759 74.3333 86.5056C73.8399 86.8352 73.4554 87.3038 73.2283 87.852C73.0013 88.4001 72.9419 89.0033 73.0577 89.5853C73.1734 90.1672 73.4591 90.7018 73.8787 91.1213C74.2983 91.5409 74.8329 91.8266 75.4148 91.9424C75.9968 92.0581 76.5998 91.9987 77.148 91.7716C77.6961 91.5446 78.1647 91.1601 78.4944 90.6667C78.824 90.1734 79 89.5933 79 89C79 88.2044 78.6839 87.4413 78.1213 86.8787C77.5587 86.3161 76.7957 86 76 86Z" fill="#86C3DB" transform="translate(0, 8)"/>
</g>
</g>
</g>
<defs>
<linearGradient id="paint0_linear_1858_8730" x1="39" y1="42" x2="39" y2="60" gradientUnits="userSpaceOnUse">
<stop stop-color="#FBBF24"/>
<stop offset="1" stop-color="#F8AF18"/>
</linearGradient>
<linearGradient id="paint1_linear_1858_8730" x1="88.0002" y1="44" x2="88.0002" y2="68" gradientUnits="userSpaceOnUse">
<stop stop-color="#B0BCCD"/>
<stop offset="1" stop-color="#94A3B8"/>
</linearGradient>
<linearGradient id="paint2_linear_1858_8730" x1="64.0008" y1="39" x2="64.0008" y2="89" gradientUnits="userSpaceOnUse">
<stop stop-color="#F3F7FE"/>
<stop offset="1" stop-color="#E6EFFC"/>
</linearGradient>
<clipPath id="clip0_1858_8730">
<rect width="128" height="128" fill="white"/>
</clipPath>
</defs>
</svg>