<svg viewBox="0 0 128 128" fill="none" xmlns="http://www.w3.org/2000/svg">
<g id="wind-snow">
<g id="Wind">
<path id="Wind Line 1" d="M87.79 40.1352C93.9756 33.347 105 38.4049 105 47.4463C105 53.2746 100.522 58 95 58H24" stroke="#E2E8F0" stroke-width="4" stroke-miterlimit="10" stroke-linecap="round"/>
<path id="Wind Line 1_2" d="M60.1281 87.868C66.4202 94.5186 78 89.8717 78 80.5556C78 74.7263 73.3503 70 67.6154 70C61.8805 70 24 70 24 70" stroke="#E2E8F0" stroke-width="4" stroke-miterlimit="10" stroke-linecap="round"/>
</g>
<g id="Snowflakes">
<path id="Snowflake 1" d="M66.5781 49.366L65.3735 48.6775C65.4794 48.2326 65.4786 47.7687 65.3708 47.3241L66.5781 46.6345C66.6738 46.5805 66.7577 46.5079 66.8252 46.421C66.8926 46.3342 66.9423 46.2347 66.9711 46.1284C66.9998 46.0221 67.0071 45.9112 66.9926 45.802C66.9782 45.6928 66.9422 45.5876 66.8868 45.4926C66.7732 45.2998 66.5886 45.1597 66.3728 45.1025C66.157 45.0452 65.9276 45.0754 65.7339 45.1866L64.5278 45.8763C64.1931 45.5586 63.7868 45.3264 63.3437 45.1995V43.8202C63.3368 43.6003 63.245 43.3918 63.0875 43.2387C62.93 43.0856 62.7192 43 62.4998 43C62.2805 43 62.0699 43.0856 61.9124 43.2387C61.7548 43.3918 61.6628 43.6003 61.656 43.8202V45.1995C61.214 45.3289 60.8081 45.5598 60.4706 45.874L59.2662 45.1853C59.0724 45.0742 58.8428 45.044 58.627 45.1013C58.4113 45.1585 58.2267 45.2986 58.113 45.4913C58.0576 45.5864 58.0217 45.6916 58.0072 45.8007C57.9928 45.9099 58 46.0209 58.0288 46.1271C58.0575 46.2334 58.1072 46.3329 58.1747 46.4198C58.2421 46.5067 58.326 46.5792 58.4217 46.6332L59.6264 47.3216C59.5204 47.7666 59.5213 48.2305 59.629 48.675L58.4217 49.3647C58.326 49.4187 58.2421 49.4912 58.1747 49.5781C58.1072 49.665 58.0575 49.7645 58.0288 49.8708C58 49.9771 57.9928 50.088 58.0072 50.1972C58.0217 50.3063 58.0576 50.4115 58.113 50.5066C58.2267 50.6992 58.4113 50.8392 58.627 50.8965C58.8428 50.9537 59.0724 50.9236 59.2662 50.8126L60.4721 50.1229C60.8063 50.4409 61.2128 50.6726 61.6562 50.7979V52.1798C61.6631 52.3997 61.755 52.6082 61.9126 52.7613C62.0701 52.9144 62.2807 53 62.5 53C62.7194 53 62.9302 52.9144 63.0877 52.7613C63.2452 52.6082 63.337 52.3997 63.3439 52.1798V50.7975C63.7853 50.6683 64.1907 50.4378 64.5278 50.1242L65.7341 50.8138C65.9278 50.9248 66.1573 50.955 66.373 50.8977C66.5888 50.8405 66.7733 50.7005 66.887 50.5079C66.9424 50.4128 66.9784 50.3076 66.9928 50.1984C67.0073 50.0892 66.9998 49.9783 66.9711 49.872C66.9423 49.7657 66.8929 49.6662 66.8254 49.5793C66.7579 49.4925 66.6738 49.4199 66.5781 49.366ZM61.8664 49.0861C61.7229 49.005 61.5968 48.8961 61.4956 48.7657C61.3944 48.6353 61.3202 48.486 61.2771 48.3266C61.2339 48.1671 61.2228 48.0007 61.2443 47.8369C61.2658 47.6731 61.3197 47.5152 61.4026 47.3724C61.5735 47.084 61.8503 46.8743 62.1736 46.7883C62.497 46.7023 62.8411 46.747 63.1321 46.9126C63.2756 46.9938 63.4016 47.1027 63.5028 47.2331C63.604 47.3635 63.6782 47.5127 63.7214 47.6722C63.7645 47.8316 63.7757 47.9981 63.7541 48.1619C63.7326 48.3257 63.6787 48.4836 63.5958 48.6263C63.425 48.9149 63.1482 49.1247 62.8248 49.2108C62.5014 49.2969 62.1574 49.2517 61.8664 49.0861Z" fill="#86C3DB" transform="translate(0, 8)"/>
<path id="Snowflake 2" d="M87.5781 69.366L86.3735 68.6775C86.4794 68.2326 86.4786 67.7687 86.3708 67.3241L87.5781 66.6345C87.6738 66.5805 87.7577 66.5079 87.8252 66.421C87.8926 66.3342 87.9423 66.2347 87.9711 66.1284C87.9998 66.0221 88.0071 65.9112 87.9926 65.802C87.9782 65.6928 87.9422 65.5876 87.8868 65.4926C87.7732 65.2998 87.5886 65.1597 87.3728 65.1025C87.157 65.0452 86.9276 65.0754 86.7339 65.1866L85.5278 65.8763C85.1931 65.5586 84.7868 65.3264 84.3437 65.1995V63.8202C84.3368 63.6003 84.245 63.3918 84.0875 63.2387C83.93 63.0856 83.7192 63 83.4998 63C83.2805 63 83.0699 63.0856 82.9124 63.2387C82.7548 63.3918 82.6628 63.6003 82.656 63.8202V65.1995C82.214 65.3289 81.8081 65.5598 81.4706 65.874L80.2662 65.1853C80.0724 65.0742 79.8428 65.044 79.627 65.1013C79.4113 65.1585 79.2267 65.2986 79.113 65.4913C79.0576 65.5864 79.0217 65.6916 79.0072 65.8007C78.9928 65.9099 79 66.0209 79.0288 66.1271C79.0575 66.2334 79.1072 66.3329 79.1747 66.4198C79.2421 66.5067 79.326 66.5792 79.4217 66.6332L80.6264 67.3216C80.5204 67.7666 80.5213 68.2305 80.629 68.675L79.4217 69.3647C79.326 69.4187 79.2421 69.4912 79.1747 69.5781C79.1072 69.665 79.0575 69.7645 79.0288 69.8708C79 69.9771 78.9928 70.088 79.0072 70.1972C79.0217 70.3063 79.0576 70.4115 79.113 70.5066C79.2267 70.6992 79.4113 70.8392 79.627 70.8965C79.8428 70.9537 80.0724 70.9236 80.2662 70.8126L81.4721 70.1229C81.8063 70.4409 82.2128 70.6726 82.6562 70.7979V72.1798C82.6631 72.3997 82.755 72.6082 82.9126 72.7613C83.0701 72.9144 83.2807 73 83.5 73C83.7194 73 83.9302 72.9144 84.0877 72.7613C84.2452 72.6082 84.337 72.3997 84.3439 72.1798V70.7975C84.7853 70.6683 85.1907 70.4378 85.5278 70.1242L86.7341 70.8138C86.9278 70.9248 87.1573 70.955 87.373 70.8977C87.5888 70.8405 87.7733 70.7005 87.887 70.5079C87.9424 70.4128 87.9784 70.3076 87.9928 70.1984C88.0073 70.0892 87.9998 69.9783 87.9711 69.872C87.9423 69.7657 87.8929 69.6662 87.8254 69.5793C87.7579 69.4925 87.6738 69.4199 87.5781 69.366ZM82.8664 69.0861C82.7229 69.005 82.5968 68.8961 82.4956 68.7657C82.3944 68.6353 82.3202 68.486 82.2771 68.3266C82.2339 68.1671 82.2228 68.0007 82.2443 67.8369C82.2658 67.6731 82.3197 67.5152 82.4026 67.3724C82.5735 67.084 82.8503 66.8743 83.1736 66.7883C83.497 66.7023 83.8411 66.747 84.1321 66.9126C84.2756 66.9938 84.4016 67.1027 84.5028 67.2331C84.604 67.3635 84.6782 67.5127 84.7214 67.6722C84.7645 67.8316 84.7757 67.9981 84.7541 68.1619C84.7326 68.3257 84.6787 68.4836 84.5958 68.6263C84.425 68.9149 84.1482 69.1247 83.8248 69.2108C83.5014 69.2969 83.1574 69.2517 82.8664 69.0861Z" fill="#86C3DB" transform="translate(0, 0)"/>
<path id="Snowflake 3" d="M48.5781 81.366L47.3735 80.6775C47.4794 80.2326 47.4786 79.7687 47.3708 79.3241L48.5781 78.6345C48.6738 78.5805 48.7577 78.5079 48.8252 78.421C48.8926 78.3342 48.9423 78.2347 48.9711 78.1284C48.9998 78.0221 49.0071 77.9112 48.9926 77.802C48.9782 77.6928 48.9422 77.5876 48.8868 77.4926C48.7732 77.2998 48.5886 77.1597 48.3728 77.1025C48.157 77.0452 47.9276 77.0754 47.7339 77.1866L46.5278 77.8763C46.1931 77.5586 45.7868 77.3264 45.3437 77.1995V75.8202C45.3368 75.6003 45.245 75.3918 45.0875 75.2387C44.93 75.0856 44.7192 75 44.4998 75C44.2805 75 44.0699 75.0856 43.9124 75.2387C43.7548 75.3918 43.6628 75.6003 43.656 75.8202V77.1995C43.214 77.3289 42.8081 77.5598 42.4706 77.874L41.2662 77.1853C41.0724 77.0742 40.8428 77.044 40.627 77.1013C40.4113 77.1585 40.2267 77.2986 40.113 77.4913C40.0576 77.5864 40.0217 77.6916 40.0072 77.8007C39.9928 77.9099 40 78.0209 40.0288 78.1271C40.0575 78.2334 40.1072 78.3329 40.1747 78.4198C40.2421 78.5067 40.326 78.5792 40.4217 78.6332L41.6264 79.3216C41.5204 79.7666 41.5213 80.2305 41.629 80.675L40.4217 81.3647C40.326 81.4187 40.2421 81.4912 40.1747 81.5781C40.1072 81.665 40.0575 81.7645 40.0288 81.8708C40 81.9771 39.9928 82.088 40.0072 82.1972C40.0217 82.3063 40.0576 82.4115 40.113 82.5066C40.2267 82.6992 40.4113 82.8392 40.627 82.8965C40.8428 82.9537 41.0724 82.9236 41.2662 82.8126L42.4721 82.1229C42.8063 82.4409 43.2128 82.6726 43.6562 82.7979V84.1798C43.6631 84.3997 43.755 84.6082 43.9126 84.7613C44.0701 84.9144 44.2807 85 44.5 85C44.7194 85 44.9302 84.9144 45.0877 84.7613C45.2452 84.6082 45.337 84.3997 45.3439 84.1798V82.7975C45.7853 82.6683 46.1907 82.4378 46.5278 82.1242L47.7341 82.8138C47.9278 82.9248 48.1573 82.955 48.373 82.8977C48.5888 82.8405 48.7733 82.7005 48.887 82.5079C48.9424 82.4128 48.9784 82.3076 48.9928 82.1984C49.0073 82.0892 48.9998 81.9783 48.9711 81.872C48.9423 81.7657 48.8929 81.6662 48.8254 81.5793C48.7579 81.4925 48.6738 81.4199 48.5781 81.366ZM43.8664 81.0861C43.7229 81.005 43.5968 80.8961 43.4956 80.7657C43.3944 80.6353 43.3202 80.486 43.2771 80.3266C43.2339 80.1671 43.2228 80.0007 43.2443 79.8369C43.2658 79.6731 43.3197 79.5152 43.4026 79.3724C43.5735 79.084 43.8503 78.8743 44.1736 78.7883C44.497 78.7023 44.8411 78.747 45.1321 78.9126C45.2756 78.9938 45.4016 79.1027 45.5028 79.2331C45.604 79.3635 45.6782 79.5127 45.7214 79.6722C45.7645 79.8316 45.7757 79.9981 45.7541 80.1619C45.7326 80.3257 45.6787 80.4836 45.5958 80.6263C45.425 80.9149 45.1482 81.1247 44.8248 81.2108C44.5014 81.2969 44.1574 81.2517 43.8664 81.0861Z" fill="#86C3DB" transform="translate(0, 8)"/>
</g>
</g>
</svg>