<svg viewBox="0 0 128 128" fill="none" xmlns="http://www.w3.org/2000/svg">
<g id="smoke" clip-path="url(#clip0_1858_9232)">
<g id="Sky">
<g id="Clouds">
<g id="Cloud">
<path id="Cloud_2" d="M55.2623 48.4746C60.1227 40.6111 70.2975 37.38 78.8151 40.9434C87.3214 44.5023 92.138 54.0026 89.903 62.9648L89.7418 63.6143L90.4108 63.585C97.4203 63.2791 103.5 68.9917 103.5 76.0283C103.5 82.8395 97.7717 88.4997 90.9772 88.5H37.9537C31.1275 88.5018 25.2029 83.1709 24.5592 76.3604C23.9158 69.5518 28.7369 63.2124 35.443 61.9453L35.9264 61.8535L35.8424 61.3691C35.0256 56.6239 37.1258 51.7168 41.1051 49.0127C45.0951 46.3014 50.4459 46.1537 54.5797 48.6396L55.0026 48.8945L55.2623 48.4746Z" fill="url(#paint0_linear_1858_9232)" stroke="#E6EFFC" stroke-miterlimit="10"/>
</g>
</g>
</g>
<g id="Smoke">
<path id="Smoke 1" d="M62.5 101.5C64.7091 101.5 66.5 103.291 66.5 105.5C66.5 107.709 64.7091 109.5 62.5 109.5C60.2909 109.5 58.5 107.709 58.5 105.5C58.5 103.291 60.2909 101.5 62.5 101.5Z" fill="url(#paint1_linear_1858_9232)" stroke="#94A3B8" stroke-miterlimit="10"/>
<path id="Smoke 2" d="M53.5 86.5C57.366 86.5 60.5 89.634 60.5 93.5C60.5 97.366 57.366 100.5 53.5 100.5C49.634 100.5 46.5 97.366 46.5 93.5C46.5 89.634 49.634 86.5 53.5 86.5Z" fill="url(#paint2_linear_1858_9232)" stroke="#94A3B8" stroke-miterlimit="10"/>
<path id="Smoke 3" d="M71.5 68.5C77.0228 68.5 81.5 72.9772 81.5 78.5C81.5 84.0228 77.0228 88.5 71.5 88.5C65.9772 88.5 61.5 84.0228 61.5 78.5C61.5 72.9772 65.9772 68.5 71.5 68.5Z" fill="url(#paint3_linear_1858_9232)" stroke="#94A3B8" stroke-miterlimit="10"/>
</g>
</g>
<defs>
<linearGradient id="paint0_linear_1858_9232" x1="64.0008" y1="39" x2="64.0008" y2="89" gradientUnits="userSpaceOnUse">
<stop stop-color="#F3F7FE"/>
<stop offset="1" stop-color="#E6EFFC"/>
</linearGradient>
<linearGradient id="paint1_linear_1858_9232" x1="62.5" y1="101" x2="62.5" y2="110" gradientUnits="userSpaceOnUse">
<stop stop-color="#B0BCCD"/>
<stop offset="1" stop-color="#94A3B8"/>
</linearGradient>
<linearGradient id="paint2_linear_1858_9232" x1="53.5" y1="86" x2="53.5" y2="101" gradientUnits="userSpaceOnUse">
<stop stop-color="#B0BCCD"/>
<stop offset="1" stop-color="#94A3B8"/>
</linearGradient>
<linearGradient id="paint3_linear_1858_9232" x1="71.5" y1="68" x2="71.5" y2="89" gradientUnits="userSpaceOnUse">
<stop stop-color="#B0BCCD"/>
<stop offset="1" stop-color="#94A3B8"/>
</linearGradient>
<clipPath id="clip0_1858_9232">
<rect width="128" height="128" fill="white"/>
</clipPath>
</defs>
</svg>