<svg viewBox="0 0 128 128" fill="none" xmlns="http://www.w3.org/2000/svg">
<g id="thunderstorms-day-rain" clip-path="url(#clip0_1858_9936)">
<g id="Sky">
<g id="Sun">
<circle id="Core" cx="39" cy="51" r="8.5" fill="url(#paint0_linear_1858_9936)" stroke="#F8AF18"/>
<g id="Rays">
<path d="M37.6875 31.3125C37.6875 30.5876 38.2751 30 39 30C39.7249 30 40.3125 30.5876 40.3125 31.3125V37.4375C40.3125 38.1624 39.7249 38.75 39 38.75C38.2751 38.75 37.6875 38.1624 37.6875 37.4375V31.3125Z" fill="#F8AF18"/>
<path d="M51.9931 36.1508C52.5056 35.6382 53.3367 35.6382 53.8492 36.1508C54.3618 36.6633 54.3618 37.4943 53.8492 38.0069L49.5182 42.3379C49.0056 42.8505 48.1746 42.8505 47.6621 42.3379C47.1495 41.8254 47.1495 40.9944 47.6621 40.4818L51.9931 36.1508Z" fill="#F8AF18"/>
<path d="M58.6875 49.6875C59.4124 49.6875 60 50.2751 60 51C60 51.7249 59.4124 52.3125 58.6875 52.3125H52.5625C51.8376 52.3125 51.25 51.7249 51.25 51C51.25 50.2751 51.8376 49.6875 52.5625 49.6875H58.6875Z" fill="#F8AF18"/>
<path d="M53.8492 63.9931C54.3618 64.5057 54.3618 65.3367 53.8492 65.8492C53.3367 66.3618 52.5056 66.3618 51.9931 65.8492L47.6621 61.5182C47.1495 61.0057 47.1495 60.1746 47.6621 59.6621C48.1746 59.1495 49.0057 59.1495 49.5182 59.6621L53.8492 63.9931Z" fill="#F8AF18"/>
<path d="M37.6875 64.5625C37.6875 63.8376 38.2751 63.25 39 63.25C39.7249 63.25 40.3125 63.8376 40.3125 64.5625V70.6875C40.3125 71.4124 39.7249 72 39 72C38.2751 72 37.6875 71.4124 37.6875 70.6875V64.5625Z" fill="#F8AF18"/>
<path d="M28.4818 59.6621C28.9943 59.1495 29.8254 59.1495 30.3379 59.6621C30.8505 60.1746 30.8505 61.0056 30.3379 61.5182L26.0069 65.8492C25.4943 66.3618 24.6633 66.3618 24.1508 65.8492C23.6382 65.3367 23.6382 64.5056 24.1508 63.9931L28.4818 59.6621Z" fill="#F8AF18"/>
<path d="M25.4375 49.6875C26.1624 49.6875 26.75 50.2751 26.75 51C26.75 51.7249 26.1624 52.3125 25.4375 52.3125H19.3125C18.5876 52.3125 18 51.7249 18 51C18 50.2751 18.5876 49.6875 19.3125 49.6875H25.4375Z" fill="#F8AF18"/>
<path d="M30.3379 40.4818C30.8505 40.9944 30.8505 41.8254 30.3379 42.3379C29.8254 42.8505 28.9944 42.8505 28.4818 42.3379L24.1508 38.0069C23.6382 37.4944 23.6382 36.6633 24.1508 36.1508C24.6633 35.6382 25.4944 35.6382 26.0069 36.1508L30.3379 40.4818Z" fill="#F8AF18"/>
</g>
</g>
<g id="Clouds">
<g id="Cloud">
<path id="Cloud_2" d="M55.2625 48.4746C60.1228 40.6111 70.2976 37.38 78.8152 40.9434C87.3215 44.5023 92.1381 54.0026 89.9031 62.9648L89.7419 63.6143L90.4109 63.585C97.4205 63.2791 103.5 68.9917 103.5 76.0283C103.5 82.8395 97.7719 88.4997 90.9773 88.5H37.9539C31.1276 88.5018 25.203 83.1709 24.5593 76.3604C23.9159 69.5518 28.7371 63.2124 35.4431 61.9453L35.9265 61.8535L35.8425 61.3691C35.0258 56.6239 37.1259 51.7168 41.1052 49.0127C45.0952 46.3014 50.4461 46.1537 54.5798 48.6396L55.0027 48.8945L55.2625 48.4746Z" fill="url(#paint1_linear_1858_9936)" stroke="#E6EFFC" stroke-miterlimit="10"/>
</g>
</g>
</g>
<g id="Precipitation">
<g id="Raindrops">
<path id="Raindrop 1" d="M52 83V95" stroke="#0A5AD4" stroke-width="4" stroke-linecap="round" transform="translate(0, 8)"/>
<path id="Raindrop 2" d="M64 83V95" stroke="#0A5AD4" stroke-width="4" stroke-linecap="round" transform="translate(0, 0)"/>
<path id="Raindrop 3" d="M76 83V95" stroke="#0A5AD4" stroke-width="4" stroke-linecap="round" transform="translate(0, 8)"/>
</g>
</g>
<g id="Lightning">
<path id="Lightning Bolt" d="M71.1729 68.5L63.5566 83.041L63.1729 83.7725H75.002L56.9521 107.892L60.4893 91.0117L60.6162 90.4092H52.7041L60.3555 68.5H71.1729Z" fill="url(#paint2_linear_1858_9936)" stroke="#F6A823" stroke-miterlimit="10"/>
</g>
</g>
<defs>
<linearGradient id="paint0_linear_1858_9936" x1="39" y1="42" x2="39" y2="60" gradientUnits="userSpaceOnUse">
<stop stop-color="#FBBF24"/>
<stop offset="1" stop-color="#F8AF18"/>
</linearGradient>
<linearGradient id="paint1_linear_1858_9936" x1="64.0009" y1="39" x2="64.0009" y2="89" gradientUnits="userSpaceOnUse">
<stop stop-color="#F3F7FE"/>
<stop offset="1" stop-color="#E6EFFC"/>
</linearGradient>
<linearGradient id="paint2_linear_1858_9936" x1="64.528" y1="66.0377" x2="84.4144" y2="77.4572" gradientUnits="userSpaceOnUse">
<stop stop-color="#F7B23B"/>
<stop offset="1" stop-color="#F6A823"/>
</linearGradient>
<clipPath id="clip0_1858_9936">
<rect width="128" height="128" fill="white"/>
</clipPath>
</defs>
</svg>