<svg viewBox="0 0 128 128" fill="none" xmlns="http://www.w3.org/2000/svg">
<g id="haze-day">
<g id="Mask group">
<mask id="mask0_1868_4608" style="mask-type:alpha" maskUnits="userSpaceOnUse" x="0" y="0" width="128" height="75">
<rect id="Mask" width="128" height="75" fill="black"/>
</mask>
<g mask="url(#mask0_1868_4608)">
<g id="Sun">
<circle id="Core" cx="64" cy="72" r="12.5" fill="url(#paint0_linear_1868_4608)" stroke="#F8AF18"/>
<g id="Rays">
<path d="M62 42C62 40.8954 62.8954 40 64 40C65.1046 40 66 40.8954 66 42V51.3333C66 52.4379 65.1046 53.3333 64 53.3333C62.8954 53.3333 62 52.4379 62 51.3333V42Z" fill="#F8AF18"/>
<path d="M83.799 49.3726C84.58 48.5915 85.8464 48.5915 86.6274 49.3726C87.4085 50.1536 87.4085 51.42 86.6274 52.201L80.0278 58.8007C79.2467 59.5817 77.9804 59.5817 77.1993 58.8007C76.4183 58.0196 76.4183 56.7533 77.1993 55.9722L83.799 49.3726Z" fill="#F8AF18"/>
<path d="M94 70C95.1046 70 96 70.8954 96 72C96 73.1046 95.1046 74 94 74H84.6667C83.5621 74 82.6667 73.1046 82.6667 72C82.6667 70.8954 83.5621 70 84.6667 70H94Z" fill="#F8AF18"/>
<path d="M86.6274 91.799C87.4085 92.58 87.4085 93.8464 86.6274 94.6274C85.8464 95.4085 84.58 95.4085 83.799 94.6274L77.1993 88.0278C76.4183 87.2467 76.4183 85.9804 77.1993 85.1993C77.9804 84.4183 79.2467 84.4183 80.0278 85.1993L86.6274 91.799Z" fill="#F8AF18"/>
<path d="M62 92.6667C62 91.5621 62.8954 90.6667 64 90.6667C65.1046 90.6667 66 91.5621 66 92.6667V102C66 103.105 65.1046 104 64 104C62.8954 104 62 103.105 62 102V92.6667Z" fill="#F8AF18"/>
<path d="M47.9722 85.1993C48.7533 84.4183 50.0196 84.4183 50.8007 85.1993C51.5817 85.9804 51.5817 87.2467 50.8007 88.0278L44.201 94.6274C43.42 95.4085 42.1536 95.4085 41.3726 94.6274C40.5915 93.8464 40.5915 92.58 41.3726 91.799L47.9722 85.1993Z" fill="#F8AF18"/>
<path d="M43.3333 70C44.4379 70 45.3333 70.8954 45.3333 72C45.3333 73.1046 44.4379 74 43.3333 74H34C32.8954 74 32 73.1046 32 72C32 70.8954 32.8954 70 34 70H43.3333Z" fill="#F8AF18"/>
<path d="M50.8007 55.9722C51.5817 56.7533 51.5817 58.0196 50.8007 58.8007C50.0196 59.5817 48.7533 59.5817 47.9722 58.8007L41.3726 52.201C40.5915 51.42 40.5915 50.1536 41.3726 49.3726C42.1536 48.5915 43.42 48.5915 44.201 49.3726L50.8007 55.9722Z" fill="#F8AF18"/>
</g>
</g>
</g>
</g>
<g id="Precipitation">
<path id="Line 2" d="M40 81H88" stroke="#E2E8F0" stroke-width="3" stroke-miterlimit="10" stroke-linecap="round" stroke-dasharray="12 9"/>
<path id="Line 1" d="M40 89H88" stroke="#E2E8F0" stroke-width="3" stroke-miterlimit="10" stroke-linecap="round" stroke-dasharray="12 9"/>
</g>
</g>
<defs>
<linearGradient id="paint0_linear_1868_4608" x1="64" y1="59" x2="64" y2="85" gradientUnits="userSpaceOnUse">
<stop stop-color="#FBBF24"/>
<stop offset="1" stop-color="#F8AF18"/>
</linearGradient>
</defs>
</svg>