<svg viewBox="0 0 128 128" fill="none" xmlns="http://www.w3.org/2000/svg"><path d="M52 20c-11 1-20 11-20 22 0 13 10 23 23 23 4 0 8-1 11-3-8-3-14-10-14-19 0-10 6-17 15-21-4-2-10-3-15-2z" fill="#E5E7EB"/><circle cx="31" cy="34" r="2.3" fill="#BFDBFE"/><circle cx="57" cy="37" r="2" fill="#BFDBFE"/><path d="M40 94c-9 0-16-6-16-15 0-7 5-12 11-14 3-12 14-20 27-20 10 0 19 5 24 14 9 1 15 7 15 16 0 11-9 19-19 19H40z" fill="#A8B7CC" stroke="#5E718B" stroke-width="4" stroke-linejoin="round"/><g stroke="#7DD3FC" stroke-width="4" stroke-linecap="round"><path d="M50 92v11M44 97h12"/><path d="M64 91v12M57 97h14"/><path d="M78 92v11M72 97h12"/></g></svg>
