<svg viewBox="0 0 128 128" fill="none" xmlns="http://www.w3.org/2000/svg">
<g id="dust" clip-path="url(#clip0_1858_23057)">
<g id="Mask group">
<mask id="mask0_1858_23057" style="mask-type:alpha" maskUnits="userSpaceOnUse" x="0" y="0" width="128" height="128">
<path id="Mask" d="M0 0H128L0 128V0Z" fill="black"/>
</mask>
<g mask="url(#mask0_1858_23057)">
<g id="Cloud">
<path id="Cloud_2" d="M55.2623 48.4746C60.1227 40.6111 70.2975 37.38 78.8151 40.9434C87.3214 44.5023 92.138 54.0026 89.903 62.9648L89.7418 63.6143L90.4108 63.585C97.4203 63.2791 103.5 68.9917 103.5 76.0283C103.5 82.8395 97.7717 88.4997 90.9772 88.5H37.9537C31.1275 88.5018 25.2029 83.1709 24.5592 76.3604C23.9158 69.5518 28.7369 63.2124 35.443 61.9453L35.9264 61.8535L35.8424 61.3691C35.0256 56.6239 37.1258 51.7168 41.1051 49.0127C45.0951 46.3014 50.4459 46.1537 54.5797 48.6396L55.0026 48.8945L55.2623 48.4746Z" fill="url(#paint0_linear_1858_23057)" stroke="#E6EFFC" stroke-miterlimit="10"/>
</g>
</g>
</g>
<g id="Dust">
<circle id="Dust 1" cx="54" cy="87" r="3" fill="#FCD966"/>
<circle id="Dust 2" cx="63" cy="87" r="3" fill="#FCD966"/>
<circle id="Dust 3" cx="63" cy="78" r="3" fill="#FCD966"/>
<circle id="Dust 4" cx="72" cy="78" r="3" fill="#FCD966"/>
<circle id="Dust 5" cx="72" cy="69" r="3" fill="#FCD966"/>
<circle id="Dust 6" cx="81" cy="69" r="3" fill="#FCD966"/>
<circle id="Dust 7" cx="81" cy="60" r="3" fill="#FCD966"/>
<circle id="Dust 8" cx="90" cy="60" r="3" fill="#FCD966"/>
<circle id="Dust 9" cx="90" cy="51" r="3" fill="#FCD966"/>
<circle id="Dust 10" cx="99" cy="51" r="3" fill="#FCD966"/>
<circle id="Dust 11" cx="99" cy="42" r="3" fill="#FCD966"/>
<circle id="Dust 12" cx="108" cy="42" r="3" fill="#FCD966"/>
</g>
</g>
<defs>
<linearGradient id="paint0_linear_1858_23057" x1="64.0008" y1="39" x2="64.0008" y2="89" gradientUnits="userSpaceOnUse">
<stop stop-color="#F3F7FE"/>
<stop offset="1" stop-color="#E6EFFC"/>
</linearGradient>
<clipPath id="clip0_1858_23057">
<rect width="128" height="128" fill="white"/>
</clipPath>
</defs>
</svg>