<svg viewBox="0 0 128 128" fill="none" xmlns="http://www.w3.org/2000/svg">
<g id="partly-cloudy-night" clip-path="url(#clip0_1858_8252)">
<g id="Sky">
<g id="Moon">
<path id="Moon_2" d="M35.1152 34.5947C33.3777 43.1625 40.7532 51.2141 49.3135 50.7832C47.6732 55.8338 42.8891 59.4999 37.2178 59.5C30.188 59.5 24.5002 53.8786 24.5 46.959C24.5 40.7451 29.0879 35.5838 35.1152 34.5947Z" fill="url(#paint0_linear_1858_8252)" stroke="#72B9D5" stroke-linecap="round" stroke-linejoin="round"/>
</g>
<g id="Clouds">
<g id="Cloud">
<path id="Cloud_2" d="M55.2623 48.4746C60.1227 40.6111 70.2975 37.38 78.8151 40.9434C87.3214 44.5023 92.138 54.0026 89.903 62.9648L89.7418 63.6143L90.4108 63.585C97.4203 63.2791 103.5 68.9917 103.5 76.0283C103.5 82.8395 97.7717 88.4997 90.9772 88.5H37.9537C31.1275 88.5018 25.2029 83.1709 24.5592 76.3604C23.9158 69.5518 28.7369 63.2124 35.443 61.9453L35.9264 61.8535L35.8424 61.3691C35.0256 56.6239 37.1258 51.7168 41.1051 49.0127C45.0951 46.3014 50.4459 46.1537 54.5797 48.6396L55.0026 48.8945L55.2623 48.4746Z" fill="url(#paint1_linear_1858_8252)" stroke="#E6EFFC" stroke-miterlimit="10"/>
</g>
</g>
</g>
</g>
<defs>
<linearGradient id="paint0_linear_1858_8252" x1="37" y1="34" x2="37" y2="60" gradientUnits="userSpaceOnUse">
<stop stop-color="#86C3DB"/>
<stop offset="1" stop-color="#72B9D5"/>
</linearGradient>
<linearGradient id="paint1_linear_1858_8252" x1="64.0008" y1="39" x2="64.0008" y2="89" gradientUnits="userSpaceOnUse">
<stop stop-color="#F3F7FE"/>
<stop offset="1" stop-color="#E6EFFC"/>
</linearGradient>
<clipPath id="clip0_1858_8252">
<rect width="128" height="128" fill="white"/>
</clipPath>
</defs>
</svg>