<svg viewBox="0 0 128 128" fill="none" xmlns="http://www.w3.org/2000/svg">
<g id="cyclone" clip-path="url(#clip0_3111_28350)">
<g id="Cyclone">
<path id="Vector" d="M82.2725 28.5508C81.7629 28.8171 81.2667 29.0997 80.7734 29.3809L80.6777 29.4346C76.7714 31.6605 72.4673 34.7228 69.3242 38.0654L68.6709 38.7598L69.6143 38.9023C69.9526 38.9535 70.2918 39.009 70.6318 39.0693C78.7494 40.5095 85.5216 45.1629 90.1787 52.0322C95.4541 59.8134 98.1397 69.6241 99.1846 78.9834C99.2727 79.7728 99.3843 81.0609 99.4482 82.2725C99.182 81.7631 98.9003 81.2666 98.6191 80.7734L98.5654 80.6777C96.3188 76.7351 93.2202 72.3869 89.8408 69.2363L89.1104 68.5547L89.0029 69.5479L88.8545 70.9102C87.2537 79.2043 82.4724 85.7862 75.4062 90.4639C68.4055 95.0981 59.9355 97.6041 51.6113 98.8271C50.3415 99.0137 47.0951 99.3971 45.6338 99.415C45.9831 99.2154 46.3325 99.0203 46.6836 98.8242C47.3177 98.47 47.9582 98.1126 48.5986 97.7275C52.463 95.4038 55.4425 92.9673 58.624 89.9346L59.3564 89.2363L58.3574 89.0791C57.9405 89.0132 57.5224 88.939 57.1035 88.8584C48.803 87.2602 42.2164 82.4762 37.5361 75.4062C32.9019 68.4055 30.3959 59.9355 29.1729 51.6113C28.9863 50.3415 28.6019 47.0951 28.584 45.6338C28.7837 45.9832 28.9796 46.3324 29.1758 46.6836C29.53 47.3177 29.8874 47.9582 30.2725 48.5986C32.6007 52.4705 35.0421 55.4541 38.083 58.6426L38.8057 59.4004L38.9404 58.3623L39.0713 57.3535C40.5144 49.2422 45.1669 42.4757 52.0322 37.8213C59.8134 32.5459 69.6241 29.8603 78.9834 28.8154C79.7728 28.7273 81.0608 28.6148 82.2725 28.5508ZM64 50.5C56.5442 50.5 50.5 56.5442 50.5 64C50.5 71.4558 56.5442 77.5 64 77.5C71.4558 77.5 77.5 71.4558 77.5 64C77.5 56.5442 71.4558 50.5 64 50.5Z" fill="url(#paint0_linear_3111_28350)" stroke="#94A3B8" stroke-miterlimit="10"/>
</g>
</g>
<defs>
<linearGradient id="paint0_linear_3111_28350" x1="64" y1="28" x2="64" y2="100" gradientUnits="userSpaceOnUse">
<stop stop-color="#B0BCCD"/>
<stop offset="1" stop-color="#94A3B8"/>
</linearGradient>
<clipPath id="clip0_3111_28350">
<rect width="128" height="128" fill="white"/>
</clipPath>
</defs>
</svg>