<svg viewBox="0 0 128 128" fill="none" xmlns="http://www.w3.org/2000/svg"><circle cx="42" cy="42" r="15" fill="#FBBF24" stroke="#F59E0B" stroke-width="4"/><g stroke="#F59E0B" stroke-width="5" stroke-linecap="round"><path d="M42 16v9"/><path d="M42 59v9"/><path d="M16 42h9"/><path d="M59 42h9"/><path d="M24 24l7 7"/><path d="M53 53l7 7"/></g><path d="M40 94c-9 0-16-6-16-15 0-7 5-12 11-14 3-12 14-20 27-20 10 0 19 5 24 14 9 1 15 7 15 16 0 11-9 19-19 19H40z" fill="#EAF2FF" stroke="#94A3B8" stroke-width="4" stroke-linejoin="round"/></svg>

