<svg viewBox="0 0 128 128" fill="none" xmlns="http://www.w3.org/2000/svg">
<g id="thunderstorms-night-rain" clip-path="url(#clip0_1858_9939)">
<g id="Sky">
<g id="Moon">
<path id="Moon_2" d="M35.1152 34.5947C33.3777 43.1625 40.7532 51.2141 49.3135 50.7832C47.6732 55.8338 42.8891 59.4999 37.2178 59.5C30.188 59.5 24.5002 53.8786 24.5 46.959C24.5 40.7451 29.0879 35.5838 35.1152 34.5947Z" fill="url(#paint0_linear_1858_9939)" stroke="#72B9D5" stroke-linecap="round" stroke-linejoin="round"/>
</g>
<g id="Clouds">
<g id="Cloud">
<path id="Cloud_2" d="M55.2625 48.4746C60.1228 40.6111 70.2976 37.38 78.8152 40.9434C87.3215 44.5023 92.1381 54.0026 89.9031 62.9648L89.7419 63.6143L90.4109 63.585C97.4205 63.2791 103.5 68.9917 103.5 76.0283C103.5 82.8395 97.7719 88.4997 90.9773 88.5H37.9539C31.1276 88.5018 25.203 83.1709 24.5593 76.3604C23.9159 69.5518 28.7371 63.2124 35.4431 61.9453L35.9265 61.8535L35.8425 61.3691C35.0258 56.6239 37.1259 51.7168 41.1052 49.0127C45.0952 46.3014 50.4461 46.1537 54.5798 48.6396L55.0027 48.8945L55.2625 48.4746Z" fill="url(#paint1_linear_1858_9939)" stroke="#E6EFFC" stroke-miterlimit="10"/>
</g>
</g>
</g>
<g id="Precipitation">
<g id="Raindrops">
<path id="Raindrop 1" d="M52 83V95" stroke="#0A5AD4" stroke-width="4" stroke-linecap="round" transform="translate(0, 8)"/>
<path id="Raindrop 2" d="M64 83V95" stroke="#0A5AD4" stroke-width="4" stroke-linecap="round" transform="translate(0, 0)"/>
<path id="Raindrop 3" d="M76 83V95" stroke="#0A5AD4" stroke-width="4" stroke-linecap="round" transform="translate(0, 8)"/>
</g>
</g>
<g id="Lightning">
<path id="Lightning Bolt" d="M71.1729 68.5L63.5566 83.041L63.1729 83.7725H75.002L56.9521 107.892L60.4893 91.0117L60.6162 90.4092H52.7041L60.3555 68.5H71.1729Z" fill="url(#paint2_linear_1858_9939)" stroke="#F6A823" stroke-miterlimit="10"/>
</g>
</g>
<defs>
<linearGradient id="paint0_linear_1858_9939" x1="37" y1="34" x2="37" y2="60" gradientUnits="userSpaceOnUse">
<stop stop-color="#86C3DB"/>
<stop offset="1" stop-color="#72B9D5"/>
</linearGradient>
<linearGradient id="paint1_linear_1858_9939" x1="64.0009" y1="39" x2="64.0009" y2="89" gradientUnits="userSpaceOnUse">
<stop stop-color="#F3F7FE"/>
<stop offset="1" stop-color="#E6EFFC"/>
</linearGradient>
<linearGradient id="paint2_linear_1858_9939" x1="64.528" y1="66.0377" x2="84.4144" y2="77.4572" gradientUnits="userSpaceOnUse">
<stop stop-color="#F7B23B"/>
<stop offset="1" stop-color="#F6A823"/>
</linearGradient>
<clipPath id="clip0_1858_9939">
<rect width="128" height="128" fill="white"/>
</clipPath>
</defs>
</svg>