<svg viewBox="0 0 128 128" fill="none" xmlns="http://www.w3.org/2000/svg">
<g id="sun-hot" clip-path="url(#clip0_1878_4673)">
<g id="Mask group">
<mask id="mask0_1878_4673" style="mask-type:alpha" maskUnits="userSpaceOnUse" x="0" y="0" width="128" height="128">
<path id="Mask" d="M0 0H128L0 128V0Z" fill="black"/>
</mask>
<g mask="url(#mask0_1878_4673)">
<g id="Sun">
<circle id="Core" cx="64" cy="64" r="19.5" fill="url(#paint0_linear_1878_4673)" stroke="#F8AF18"/>
<g id="Rays">
<path d="M61 19C61 17.3431 62.3431 16 64 16C65.6568 16 67 17.3431 67 19V33C67 34.6569 65.6568 36 64 36C62.3431 36 61 34.6569 61 33V19Z" fill="#F8AF18"/>
<path d="M93.6985 30.0589C94.87 28.8873 96.7696 28.8873 97.9411 30.0589C99.1127 31.2304 99.1127 33.1299 97.9411 34.3015L88.0416 44.201C86.8701 45.3726 84.9706 45.3726 83.799 44.201C82.6274 43.0294 82.6274 41.1299 83.799 39.9584L93.6985 30.0589Z" fill="#F8AF18"/>
<path d="M109 61C110.657 61 112 62.3432 112 64C112 65.6569 110.657 67 109 67H95C93.3431 67 92 65.6569 92 64C92 62.3432 93.3431 61 95 61H109Z" fill="#F8AF18"/>
<path d="M97.9411 93.6985C99.1127 94.8701 99.1127 96.7696 97.9411 97.9411C96.7696 99.1127 94.8701 99.1127 93.6985 97.9411L83.799 88.0416C82.6274 86.8701 82.6274 84.9706 83.799 83.799C84.9706 82.6274 86.8701 82.6274 88.0416 83.799L97.9411 93.6985Z" fill="#F8AF18"/>
<path d="M61 95C61 93.3431 62.3431 92 64 92C65.6568 92 67 93.3431 67 95V109C67 110.657 65.6568 112 64 112C62.3431 112 61 110.657 61 109V95Z" fill="#F8AF18"/>
<path d="M39.9584 83.799C41.1299 82.6274 43.0294 82.6274 44.201 83.799C45.3726 84.9706 45.3726 86.8701 44.201 88.0416L34.3015 97.9411C33.1299 99.1127 31.2304 99.1127 30.0589 97.9411C28.8873 96.7696 28.8873 94.87 30.0589 93.6985L39.9584 83.799Z" fill="#F8AF18"/>
<path d="M33 61C34.6569 61 36 62.3431 36 64C36 65.6568 34.6569 67 33 67H19C17.3431 67 16 65.6568 16 64C16 62.3431 17.3431 61 19 61H33Z" fill="#F8AF18"/>
<path d="M44.201 39.9584C45.3726 41.1299 45.3726 43.0294 44.201 44.201C43.0294 45.3726 41.1299 45.3726 39.9584 44.201L30.0589 34.3015C28.8873 33.1299 28.8873 31.2305 30.0589 30.0589C31.2305 28.8873 33.1299 28.8873 34.3015 30.0589L44.201 39.9584Z" fill="#F8AF18"/>
</g>
</g>
</g>
</g>
<path id="path" d="M47.1048 96.3952C45.6317 92.2115 46.987 90.8562 51.1707 92.3294C55.3544 93.8025 56.7097 92.4472 55.2365 88.2635C53.7634 84.0798 55.1187 82.7245 59.3024 84.1977C63.4861 85.6708 64.8414 84.3155 63.3683 80.1318C61.8951 75.9481 63.2504 74.5928 67.4341 76.0659C71.6179 77.5391 72.9731 76.1838 71.5 72.0001C70.0269 67.8163 71.3822 66.4611 75.5659 67.9342C79.7496 69.4073 81.1049 68.052 79.6317 63.8683C78.1586 59.6846 79.5139 58.3293 83.6976 59.8025C87.8813 61.2756 89.2366 59.9203 87.7635 55.7366C86.2903 51.5529 87.6456 50.1976 91.8293 51.6707C96.013 53.1439 97.3683 51.7886 95.8952 47.6049" stroke="#E2E8F0" stroke-width="2" stroke-linecap="round"/>
<path id="path_2" d="M62.1048 96.3952C60.6317 92.2115 61.987 90.8562 66.1707 92.3294C70.3544 93.8025 71.7097 92.4472 70.2365 88.2635C68.7634 84.0798 70.1187 82.7245 74.3024 84.1977C78.4861 85.6708 79.8414 84.3155 78.3683 80.1318C76.8951 75.9481 78.2504 74.5928 82.4341 76.0659C86.6179 77.5391 87.9731 76.1838 86.5 72.0001C85.0269 67.8163 86.3822 66.4611 90.5659 67.9342C94.7496 69.4073 96.1049 68.052 94.6317 63.8683C93.1586 59.6846 94.5139 58.3293 98.6976 59.8025C102.881 61.2756 104.237 59.9203 102.763 55.7366C101.29 51.5529 102.646 50.1976 106.829 51.6707C111.013 53.1439 112.368 51.7886 110.895 47.6049" stroke="#E2E8F0" stroke-width="2" stroke-linecap="round"/>
</g>
<defs>
<linearGradient id="paint0_linear_1878_4673" x1="64" y1="44" x2="64" y2="84" gradientUnits="userSpaceOnUse">
<stop stop-color="#FBBF24"/>
<stop offset="1" stop-color="#F8AF18"/>
</linearGradient>
<clipPath id="clip0_1878_4673">
<rect width="128" height="128" fill="white"/>
</clipPath>
</defs>
</svg>