<?xml version="1.0" encoding="iso-8859-1"?>
<!-- Generator: Adobe Illustrator 19.0.0, SVG Export Plug-In . SVG Version: 6.00 Build 0)  -->
<svg version="1.1" id="Capa_1" xmlns="http://www.w3.org/2000/svg" xmlns:xlink="http://www.w3.org/1999/xlink" x="0px" y="0px"
	 viewBox="0 0 512.002 512.002" style="enable-background:new 0 0 512.002 512.002;" xml:space="preserve">
<g>
	<g>
		<path d="M447.17,226.773c-17.8-18.361-50.162-16.064-71.703-6.604c-22.669,9.956-41.021,29.993-38.495,56.178
			c2.565,26.586,30.075,43.509,53.837,28.711c9.645-6.007,19.915-18.857,15.759-30.792c-4.048-11.625-17.312-15.68-28.318-13.048
			c-8.36,1.999-4.733,14.21,3.508,12.725c8.932-1.609,12.69,5.516,8.223,12.771c-2.991,4.858-8.097,8.39-13.556,9.876
			c-12.46,3.394-23.481-5.166-26.782-16.986c-6.518-23.342,13.476-42.543,33.461-50.114c17.322-6.562,49.077-8.379,57.371,12.683
			c8.405,21.342-6.406,44.529-20.785,59.495c-59.588,62.023-167.307,71.072-243.529,37.641
			c-45.312-19.873-87.459-47.293-117.739-86.839c-0.892-1.165-2.618-0.206-1.985,1.161c12.728,27.501,35.029,48.158,59.196,65.993
			c23.916,17.65,51.814,33.572,80.479,41.92c59.393,17.297,124.49,15.821,180.839-10.956c25.345-12.043,49.173-28.491,65.601-51.624
			C456.663,279.092,466.678,246.895,447.17,226.773z"/>
	</g>
</g>
<g>
	<g>
		<path d="M285.581,250.848c-19.516-12.653-67.114-16.107-75.12,12.634c-3.558,12.78,3.436,25.83,16.232,29.398
			c12.723,3.547,30.627-3.982,22.607-19.292c-3.505-6.691-15.48-1.949-12.449,5.248c2.411,5.726-12.39-0.539-12.194-0.36
			c-2.024-1.838-2.864-4.459-3.071-7.096c-0.651-8.309,5.548-12.629,12.781-14.745c13.716-4.013,29.597-3.161,41.875,4.643
			c13.984,8.89,11.739,30.465,1.617,41.506c-9.909,10.809-27.782,13.795-41.802,14.075c-28.923,0.578-59.414-8.089-84.385-22.495
			c-21.484-12.394-44.983-28.052-59.095-48.863c-1.444-2.129-4.628-0.291-3.455,2.019c6.997,13.785,19.502,26.708,30.668,37.348
			c12.722,12.123,28.242,21.896,44.235,29.042c32.903,14.701,73.473,23.605,108.133,9.535
			C298.841,312.614,313.498,268.947,285.581,250.848z"/>
	</g>
</g>
<g>
	<g>
		<path d="M510.654,347.98c-5.357-22.441-27.383-28.944-48.248-25.962c-22.624,3.233-43.033,16.934-51.865,38.418
			c-7.786,18.938,5.345,41.433,25.617,43.989c21.067,2.656,43.594-17.023,30.493-38.091c-2.147-3.453-8.694-2.382-8.25,2.234
			c0.82,8.519-1.126,17.119-9.228,21.694c-9.783,5.524-22.861,0.987-27.431-8.82c-9.666-20.746,13.161-40.941,31.217-46.776
			c9.7-3.134,21.035-4.289,30.72-0.592c11.053,4.22,14.921,15.757,14.165,26.971c-1.315,19.518-15.788,36.89-30.152,48.887
			c-29.79,24.882-74.98,27.641-112.087,27.184c-40.422-0.498-81.074-5.754-120.625-13.943
			c-44.745-9.264-86.77-22.357-127.202-43.873c-2.126-1.131-3.967,1.991-1.891,3.235c23.075,13.827,46.143,27.841,71.636,36.771
			c26.789,9.384,54.38,16.379,82.246,21.707c52.636,10.064,110.014,16.58,162.92,5.162c24.814-5.355,47.173-15.589,64.943-34.043
			C503.546,395.606,516.264,371.481,510.654,347.98z"/>
	</g>
</g>
<g>
	<g>
		<path d="M346.331,373.938c-21.499,10.795-8.087,36.061,13.397,30.196c2.866-0.782,2.804-4.932,0-5.746
			c-2.892-0.841-6.813-1.403-9.374-3.005c-7.658-4.789-0.707-11.219,4.819-12.969c7.147-2.263,21.677-4.629,26.854,3.098
			c10.863,16.213-22.936,23.527-31.86,25.401c-31.949,6.712-69.164,1.566-99.893-8.622c-1.307-0.433-2.051,1.493-0.918,2.179
			c25.518,15.449,57.563,21.119,87.105,19.253c19.371-1.223,55.337-5.644,58.865-30.416
			C399.224,365.934,363.117,365.51,346.331,373.938z"/>
	</g>
</g>
<g>
	<g>
		<path d="M179.693,195.954c-4.231-3.625-9.166-4.866-14.068-6.211c18.351-4.623,33.73-22.776,29.007-42.434
			c-2.923-12.168-15.004-19.975-27.377-20.991c15.379-11.007,26.644-27.398,27.291-45.673c1.447-40.879-49.214-66.102-84.76-61.488
			c-22.077,2.866-39.877,13.904-51.06,33.007c-5.219,8.915-8.541,18.084-9.157,28.472c-0.574,9.679,1.192,17.344,3.911,25.61
			c-2.612-1.017-5.21-2.118-7.942-2.711c-4.523-0.981-9.273-1.246-13.885-1.169c-9.664,0.161-18.815,0.183-25.354,8.23
			c-13.622,16.764-3.034,41.375,11.694,53.23c21.649,17.428,47.24,28.607,71.314,42.12c11.999,6.736,24.142,13.204,36.058,20.085
			c2.442,1.41,4.9,2.712,7.37,3.952c12.403,9.626,23.79,20.559,41.419,19.062c16.518-1.403,17.876-21.971,15.551-34.811
			C188.431,207.198,185.169,200.645,179.693,195.954z M177.66,237.701c-6.488,5.693-20.089,0.452-26.891-3.829
			c-5.6-3.523-10.056-8.782-15.492-12.612c-6.54-4.607-13.685-8.303-20.825-11.874c-4.187-2.094-8.567-3.571-12.808-5.406
			c-14.957-9.021-30.029-17.875-45.33-26.539c-18.042-10.215-45.235-22.723-46.741-46.532c-0.74-11.694,5.089-17.867,14.25-20.16
			c5.191,0.087,10.348,0.051,15.605,0.43c7.453,0.538,12.696,1.474,17.135,8.237c2.685,4.092,3.71,8.522,2.864,13.341
			c-2.024,11.529-11.107,15.104-21.834,11.295c-4.444-1.578-10.266-4.415-11.542-9.454c-1.045-4.128,0.958-7.648,5.063-9.396
			c1.061-0.738,2.237-1.023,3.529-0.855c3.241-0.827,4.522,1.171,3.843,5.996c-3.53,1.361-2.188,6.318,1.562,5.665
			c6.461-1.126,8.938-8.976,4.898-13.973c-4.651-5.752-12.952-5.099-18.718-1.767c-6.75,3.901-9.587,10.805-6.969,18.357
			c2.944,8.491,13.342,13.591,21.668,15.001c18.042,3.057,32.035-14.884,25.31-32.004c-1.028-2.618-2.345-4.971-3.918-7.029
			c0.829-0.925,1.249-2.236,0.919-3.583c-1.967-8.042-5.062-14.318-5.277-22.966c-0.26-10.466,1.474-19.546,6.547-28.734
			c8.425-15.258,19.552-24.515,36.411-29.406c34.078-9.887,94.492,14.827,83.808,58.431c-7.124,29.075-55.077,59.158-81.69,36.008
			c-13.27-11.543-8.861-36.581,6.045-45.124c10.497-6.016,27.199-2.1,31.376,10.016c4.146,12.027-3.829,19.095-11.907,26.425
			c-2.825,2.564,0.765,6.523,3.869,5.015c15.814-7.682,24.401-24.3,13.359-40.687c-8.566-12.712-28.28-16.132-41.264-8.582
			c-13.281,7.722-20.446,25.726-18.142,40.573c2.432,15.668,15.788,25.698,30.856,27.993c13.24,2.017,27.708-1.125,40.519-7.814
			c7.54-0.352,15.484,0.818,21.584,4.848c12.459,8.23,9.387,25.701,0.217,35.068c-8.499,8.683-21.451,12.395-33.079,8.438
			c-5.467-1.86-18.614-8.458-9.364-16.851c5.858-5.314,19.542-4.809,20.26,5.84c0.191,2.835,3.976,3.376,4.917,0.666
			c6.593-18.999-24.769-20.088-33.733-9.141c-4.951,6.047-2.092,15.604,2.999,20.673c5.789,5.763,14.834,8.73,23.242,9.1
			c1.985,1.679,4.876,2.383,7.265,3.402c8.317,3.549,15.543,7.544,18.692,16.545C183.394,218.313,183.848,232.272,177.66,237.701z"
			/>
	</g>
</g>
<g>
	<g>
		<path d="M481.913,78.718c-4.579-10.869-15.464-16.577-27.029-15.163c-3.878,0.475-9.182,2.003-13.091,4.722
			c-5.004-11.207-19.167-20.212-29.114-23.461c-19.401-6.336-41.215-2.651-59.834,4.828c-33.695,13.534-59.708,58.192-35.07,90.722
			c1.039,1.372,2.146,2.654,3.282,3.893c-7.012,2.789-14.182,10.105-16.865,14.686c-1.762,3.008-2.924,10.205-5.627,11.675
			c-2.595,1.411-11.158-2.264-14.592-2.725c-7.468-1.004-16.772-1.032-23.615,2.739c-13.934,7.678-0.921,22.148,8.834,26.573
			c14.332,6.502,33.853,11.126,49.877,6.834c17.359,0.304,34.055-2.99,50.765-7.499c30.03-8.103,59.559-21.201,82.847-42.205
			C471.322,137.526,493.017,105.073,481.913,78.718z M467.781,120.364c-10.273,21.736-30.967,37.74-51.561,49.143
			c-20.024,11.087-41.923,18.302-64.102,23.676c-8.484,2.054-17.065,3.451-25.73,4.191c-0.421-0.385-0.961-0.634-1.599-0.614
			c-15.397,0.48-29.669,0.777-44.609-3.916c-6.371-2.002-22.391-9.152-12.472-15.969c4.938-3.394,17.473-0.329,22.381,1.155
			c6.445,1.95,13.577,5.508,16.899-2.473c2.825-6.789,2.066-13.342,7.652-19.286c1.768-1.88,6.254-6.474,10.117-8.326
			c24.957,22.387,66.92,17.558,85.655-11.595c9.174-14.275,13.144-36.14-1.455-48.291c-13.637-11.351-33.016-11.054-46.834-0.206
			c-13.146,10.321-18.315,30.741-4.09,42.592c13.879,11.564,28.961-2.658,23.549-18.122c-1.954-5.583-10.587-3.364-8.965,2.472
			c1.384,4.979-0.553,11.299-6.553,9.17c-4.744-1.682-6.98-8.432-6.745-12.984c0.424-8.19,6.733-15.026,13.594-18.767
			c8.842-4.822,19.351-4.245,27.8,1.081c9.215,5.81,10.499,16.844,7.808,26.655c-9.573,34.897-56.857,45.14-81.162,19.428
			c-25.075-26.526-5.165-64.485,22.316-79.999c12.832-7.245,32.082-11.707,46.657-10.455c8.449,0.725,16.925,3.004,24.192,7.441
			c5.506,3.361,15.401,11.907,16.075,19.706c-0.049,0.547-0.053,1.111,0.004,1.697c0.438,4.47,6.652,4.542,7.008,0
			c-0.344-6.23,14.203-6.524,17.344-5.838c7.517,1.641,12.254,7.547,13.796,14.974C477.1,98.216,472.532,110.31,467.781,120.364z"/>
	</g>
</g>
<g>
	<g>
		<path d="M108.084,352.624c-28.472-15.891-61.349-35.14-76.323-65.711c-0.277-0.566-1.243-0.168-1.027,0.433
			c5.912,16.459,16.723,29.332,29.238,41.298c13.619,13.023,27.431,24.376,46.203,28.508
			C108.83,357.736,110.632,354.046,108.084,352.624z"/>
	</g>
</g>
<g>
	<g>
		<path d="M119.481,424.999c-9.321,2.489-16.046,13.83-9.984,22.81c6.047,8.959,17.318,6.145,22.615-1.345
			c1.894-2.678-1.76-5.936-4.368-4.368c-13.729,8.252-6.257-7.79,0.75-8.143c4.245-0.214,9.602,1.741,13.406,3.633
			c7.689,3.825,18.145,13.404,15.523,23.109c-5.89,21.807-42.004,4.475-52.875-2.505c-14.23-9.137-27.392-21.32-37.737-34.685
			c-8.684-11.218-18.997-24.455-22.52-38.41c-0.195-0.773-1.324-0.579-1.355,0.183c-0.518,12.81,8.765,26.777,15.465,37.047
			c9.205,14.11,20.51,26.402,33.746,36.856c16.508,13.038,58.739,36.148,72.946,7.86
			C177.591,442.158,140.85,419.291,119.481,424.999z"/>
	</g>
</g>
<g>
	<g>
		<path d="M291.632,472.592c-1.795-13.922-22.149-20.95-34.141-17.326c-16.339,4.937-11.153,28.097,4.628,19.355
			c1.752-0.971,1.579-4.223-0.598-4.575c-4.079-0.66-3.605-4.532-0.385-6.455c1.26-0.753,5.801,0.039,6.683,0.185
			c3.872,0.641,8.031,2.079,11.079,4.571c14.582,11.923-12.728,16.786-20.204,16.629c-23.538-0.493-49.26-10.222-68.702-23.26
			c-0.528-0.354-1.316,0.376-0.909,0.908c13.597,17.748,40.293,27.804,61.9,30.252C264.539,494.412,294.356,493.725,291.632,472.592
			z"/>
	</g>
</g>
<g>
</g>
<g>
</g>
<g>
</g>
<g>
</g>
<g>
</g>
<g>
</g>
<g>
</g>
<g>
</g>
<g>
</g>
<g>
</g>
<g>
</g>
<g>
</g>
<g>
</g>
<g>
</g>
<g>
</g>
</svg>
