<svg id="Capa_1" enable-background="new 0 0 512 512" height="512" viewBox="0 0 512 512" width="512" xmlns="http://www.w3.org/2000/svg"><g><path d="m109.057 241h30v30h-30z"/><path d="m372.943 241h30v30h-30z"/><path d="m463.681 256c0-28.553 17.159-53.812 43.716-64.351l4.603-24.999c-22.398-20.533-51.475-31.842-81.873-31.842-20.318 0-39.48 5.034-56.317 13.908 2.092-8.9 3.204-18.174 3.204-27.703 0-66.727-54.286-121.013-121.014-121.013s-121.014 54.286-121.014 121.014c0 9.529 1.111 18.803 3.204 27.703-16.837-8.874-35.999-13.908-56.317-13.908-30.398 0-59.475 11.309-81.873 31.842l4.604 24.999c26.556 10.538 43.715 35.797 43.715 64.35s-17.159 53.812-43.715 64.351l-4.604 24.999c22.398 20.533 51.475 31.842 81.873 31.842 20.318 0 39.48-5.034 56.317-13.908-2.092 8.9-3.204 18.173-3.204 27.703 0 66.727 54.286 121.013 121.014 121.013s121.014-54.286 121.014-121.014c0-9.529-1.111-18.803-3.204-27.703 16.837 8.874 35.999 13.908 56.317 13.908 30.398 0 59.475-11.309 81.873-31.842l-4.604-24.999c-26.556-10.538-43.715-35.797-43.715-64.35zm-136.816 83.848c0 8.271-6.729 15-15 15s-15-6.729-15-15 6.729-15 15-15 15 6.728 15 15zm-70.865-69.875c-20.26 0-39.368 5.012-56.163 13.849 2.108-8.937 3.228-18.251 3.228-27.822s-1.12-18.885-3.228-27.822c16.795 8.838 35.903 13.849 56.163 13.849s39.369-5.012 56.164-13.85c-2.107 8.937-3.228 18.251-3.228 27.823s1.12 18.885 3.228 27.823c-16.795-8.838-35.904-13.85-56.164-13.85zm-68.724-95.361c0-8.271 6.729-15 15-15s15 6.729 15 15-6.729 15-15 15-15-6.728-15-15zm124.589-119.737c8.271 0 15 6.729 15 15s-6.729 15-15 15-15-6.729-15-15 6.729-15 15-15zm-55.865-24.875c9.821 0 19.281 1.57 28.15 4.461-10.512 8.245-17.285 21.049-17.285 35.414 0 24.813 20.187 45 45 45 12.944 0 24.621-5.501 32.838-14.279 1.511 6.566 2.31 13.4 2.31 20.417 0 50.186-40.828 91.014-91.014 91.014-8.448 0-16.63-1.162-24.398-3.326 9.587-8.259 15.674-20.473 15.674-34.089 0-24.813-20.187-45-45-45-13.579 0-25.762 6.054-34.02 15.594-2.127-7.707-3.27-15.819-3.27-24.193.001-50.185 40.829-91.013 91.015-91.013zm-218.085 305.912c24.89-18.322 40.404-48.985 40.404-79.912 0-30.952-15.479-61.565-40.404-79.912 13.353-7.355 28.426-11.279 43.958-11.279 50.283 0 91.191 40.908 91.191 91.191s-40.908 91.191-91.191 91.191c-15.532 0-30.605-3.923-43.958-11.279zm164.361 123.673c-8.271 0-15-6.729-15-15s6.729-15 15-15 15 6.729 15 15-6.728 15-15 15zm53.724 22.415c-8.448 0-16.63-1.162-24.398-3.326 9.587-8.259 15.674-20.473 15.674-34.089 0-24.813-20.187-45-45-45-13.579 0-25.762 6.054-34.02 15.594-2.127-7.707-3.27-15.819-3.27-24.193 0-50.186 40.828-91.014 91.014-91.014 9.821 0 19.281 1.57 28.15 4.461-10.512 8.245-17.285 21.049-17.285 35.414 0 24.813 20.187 45 45 45 12.944 0 24.621-5.501 32.838-14.279 1.511 6.566 2.31 13.4 2.31 20.417.001 50.187-40.827 91.015-91.013 91.015zm174.127-134.809c-50.282 0-91.19-40.908-91.19-91.191s40.908-91.191 91.19-91.191c15.532 0 30.605 3.924 43.958 11.279-24.89 18.321-40.404 48.985-40.404 79.912 0 30.952 15.479 61.565 40.404 79.912-13.353 7.356-28.426 11.279-43.958 11.279z"/></g></svg>