<?xml version="1.0" encoding="UTF-8" standalone="no"?>
<!-- Generator: Adobe Illustrator 19.0.0, SVG Export Plug-In . SVG Version: 6.00 Build 0)  -->

<svg
   xmlns:dc="http://purl.org/dc/elements/1.1/"
   xmlns:cc="http://creativecommons.org/ns#"
   xmlns:rdf="http://www.w3.org/1999/02/22-rdf-syntax-ns#"
   xmlns:svg="http://www.w3.org/2000/svg"
   xmlns="http://www.w3.org/2000/svg"
   xmlns:sodipodi="http://sodipodi.sourceforge.net/DTD/sodipodi-0.dtd"
   xmlns:inkscape="http://www.inkscape.org/namespaces/inkscape"
   version="1.1"
   id="Layer_1"
   x="0px"
   y="0px"
   viewBox="0 0 512 512"
   style="enable-background:new 0 0 512 512;"
   xml:space="preserve"
   sodipodi:docname="rainsnow.svg"
   inkscape:version="0.92.4 (5da689c313, 2019-01-14)"><metadata
   id="metadata907"><rdf:RDF><cc:Work
       rdf:about=""><dc:format>image/svg+xml</dc:format><dc:type
         rdf:resource="http://purl.org/dc/dcmitype/StillImage" /><dc:title></dc:title></cc:Work></rdf:RDF></metadata><defs
   id="defs905" /><sodipodi:namedview
   pagecolor="#ffffff"
   bordercolor="#666666"
   borderopacity="1"
   objecttolerance="10"
   gridtolerance="10"
   guidetolerance="10"
   inkscape:pageopacity="0"
   inkscape:pageshadow="2"
   inkscape:window-width="1920"
   inkscape:window-height="1137"
   id="namedview903"
   showgrid="false"
   inkscape:zoom="1.890625"
   inkscape:cx="256"
   inkscape:cy="213.68595"
   inkscape:window-x="-8"
   inkscape:window-y="-8"
   inkscape:window-maximized="1"
   inkscape:current-layer="Layer_1" />
<g
   id="g870">
	<g
   id="g868">
		<g
   id="g866">
			<path
   d="M489.579,254.766c-12.942-16.932-30.829-29.887-50.839-36.933c-0.828-48.454-40.501-87.618-89.148-87.618     c-7.618,0-15.213,0.993-22.647,2.958c-12.102-15.076-27.37-27.615-44.441-36.457c-19.642-10.173-40.881-15.331-63.127-15.331     c-74.705,0-135.736,59.676-137.931,133.859C33.885,227.82,0,271.349,0,321.107c0,60.383,49.125,109.508,109.508,109.508h292.983     C462.875,430.615,512,381.49,512,321.107C512,296.896,504.246,273.956,489.579,254.766z M402.491,415.061H109.508     c-51.806,0-93.953-42.147-93.953-93.953c0-44.549,31.647-83.274,75.248-92.079l6.342-1.281l-0.106-6.47     c-0.008-0.465-0.036-0.923-0.069-1.38c-0.012-0.173-0.031-0.344-0.031-0.52c0-67.512,54.925-122.437,122.436-122.437     c39.135,0,75.005,18.162,98.411,49.828l3.349,4.53l5.348-1.769c7.542-2.494,15.317-3.759,23.108-3.759     c40.587,0,73.606,33.019,73.606,73.607c0,0.645-0.05,1.382-0.103,2.164c-0.034,0.505-0.067,1.011-0.093,1.518l-0.303,6.145     l5.911,1.709c19.171,5.544,36.435,17.369,48.61,33.297c12.577,16.453,19.224,36.127,19.224,56.895     C496.445,372.913,454.297,415.061,402.491,415.061z"
   id="path862" />
			<path
   d="M135.62,193.401h15.555c0-26.66,21.69-48.35,48.351-48.35v-15.555C164.289,129.495,135.62,158.163,135.62,193.401z"
   id="path864" />
		</g>
	</g>
</g>
<g
   id="g872">
</g>
<g
   id="g874">
</g>
<g
   id="g876">
</g>
<g
   id="g878">
</g>
<g
   id="g880">
</g>
<g
   id="g882">
</g>
<g
   id="g884">
</g>
<g
   id="g886">
</g>
<g
   id="g888">
</g>
<g
   id="g890">
</g>
<g
   id="g892">
</g>
<g
   id="g894">
</g>
<g
   id="g896">
</g>
<g
   id="g898">
</g>
<g
   id="g900">
</g>
<path
   sodipodi:type="star"
   style="opacity:1;fill:#000000;fill-opacity:1;fill-rule:nonzero;stroke:#000004;stroke-width:5.00031519;stroke-linecap:butt;stroke-linejoin:round;stroke-miterlimit:0;stroke-dasharray:none;stroke-dashoffset:0.99999976;stroke-opacity:1;paint-order:fill markers stroke"
   id="path4632"
   sodipodi:sides="6"
   sodipodi:cx="365.48761"
   sodipodi:cy="317.35538"
   sodipodi:r1="31.224537"
   sodipodi:r2="11.809369"
   sodipodi:arg1="1.3833672"
   sodipodi:arg2="1.906966"
   inkscape:flatsided="false"
   inkscape:rounded="0.1"
   inkscape:randomized="0"
   d="m 371.30579,348.03306 c -2.14297,0.40643 -7.65469,-18.80983 -9.71378,-19.52934 -2.05908,-0.71951 -18.3395,10.88185 -19.76296,9.22919 -1.42347,-1.65265 12.46244,-16.03407 12.05601,-18.17705 -0.40642,-2.14298 -18.59371,-10.44155 -17.8742,-12.50063 0.71952,-2.05909 20.11714,2.77575 21.7698,1.35229 1.65266,-1.42346 -0.25421,-21.3234 1.88877,-21.72983 2.14297,-0.40643 7.65469,18.80983 9.71378,19.52935 2.05908,0.71951 18.3395,-10.88186 19.76296,-9.2292 1.42347,1.65266 -12.46244,16.03408 -12.05601,18.17705 0.40642,2.14298 18.59371,10.44155 17.8742,12.50064 -0.71952,2.05908 -20.11714,-2.77576 -21.7698,-1.35229 -1.65266,1.42346 0.25421,21.3234 -1.88877,21.72982 z" /><path
   sodipodi:type="star"
   style="opacity:1;fill:#000000;fill-opacity:1;fill-rule:nonzero;stroke:#000004;stroke-width:5.00031519;stroke-linecap:butt;stroke-linejoin:round;stroke-miterlimit:0;stroke-dasharray:none;stroke-dashoffset:0.99999976;stroke-opacity:1;paint-order:fill markers stroke"
   id="path4634"
   sodipodi:sides="6"
   sodipodi:cx="420.49588"
   sodipodi:cy="391.93387"
   sodipodi:r1="25.077991"
   sodipodi:r2="9.4846973"
   sodipodi:arg1="1.088283"
   sodipodi:arg2="1.6118818"
   inkscape:flatsided="false"
   inkscape:rounded="0.1"
   inkscape:randomized="0"
   d="m 432.13224,414.14874 c -1.55181,0.81286 -10.2756,-12.66622 -12.02593,-12.73818 -1.75034,-0.0719 -11.55104,12.64561 -13.03089,11.70813 -1.47986,-0.93748 5.83147,-15.23205 5.01862,-16.78386 -0.81286,-1.55181 -16.72694,-3.68068 -16.65499,-5.43101 0.072,-1.75034 16.10708,-2.56582 17.04456,-4.04568 0.93748,-1.47986 -5.1759,-16.32629 -3.62409,-17.13915 1.55181,-0.81285 10.2756,12.66623 12.02593,12.73819 1.75034,0.072 11.55104,-12.64562 13.03089,-11.70814 1.47986,0.93748 -5.83147,15.23205 -5.01862,16.78386 0.81286,1.55181 16.72694,3.68069 16.65499,5.43102 -0.072,1.75033 -16.10708,2.56582 -17.04456,4.04568 -0.93748,1.47985 5.1759,16.32629 3.62409,17.13914 z" /><path
   sodipodi:type="star"
   style="opacity:1;fill:#000000;fill-opacity:1;fill-rule:nonzero;stroke:#000004;stroke-width:5.00031519;stroke-linecap:butt;stroke-linejoin:round;stroke-miterlimit:0;stroke-dasharray:none;stroke-dashoffset:0.99999976;stroke-opacity:1;paint-order:fill markers stroke"
   id="path4636"
   sodipodi:sides="6"
   sodipodi:cx="339.57025"
   sodipodi:cy="445.35538"
   sodipodi:r1="29.605663"
   sodipodi:r2="11.197099"
   sodipodi:arg1="1.2433961"
   sodipodi:arg2="1.7669949"
   inkscape:flatsided="false"
   inkscape:rounded="0.1"
   inkscape:randomized="0"
   d="m 349.09091,473.38843 c -1.95823,0.66507 -9.67503,-16.64762 -11.70345,-17.05077 -2.02841,-0.40316 -15.77914,12.64273 -17.33422,11.27938 -1.55508,-1.36335 9.57975,-16.70264 8.91468,-18.66087 -0.66506,-1.95824 -18.8385,-7.34377 -18.43534,-9.37219 0.40316,-2.02841 19.25478,-0.055 20.61813,-1.61009 1.36335,-1.55508 -3.05936,-19.98651 -1.10112,-20.65157 1.95824,-0.66506 9.67504,16.64762 11.70345,17.05078 2.02841,0.40316 15.77914,-12.64274 17.33422,-11.27939 1.55508,1.36336 -9.57974,16.70264 -8.91468,18.66088 0.66506,1.95823 18.8385,7.34377 18.43534,9.37218 -0.40316,2.02841 -19.25478,0.055 -20.61813,1.6101 -1.36335,1.55507 3.05936,19.9865 1.10112,20.65156 z" /><path
   sodipodi:type="star"
   style="opacity:1;fill:#000000;fill-opacity:1;fill-rule:nonzero;stroke:#000004;stroke-width:5.00031519;stroke-linecap:butt;stroke-linejoin:round;stroke-miterlimit:0;stroke-dasharray:none;stroke-dashoffset:0.99999976;stroke-opacity:1;paint-order:fill markers stroke"
   id="path4638"
   sodipodi:sides="6"
   sodipodi:cx="429.48761"
   sodipodi:cy="474.44629"
   sodipodi:r1="31.421032"
   sodipodi:r2="11.883685"
   sodipodi:arg1="0.94076242"
   sodipodi:arg2="1.4643612"
   inkscape:flatsided="false"
   inkscape:rounded="0.1"
   inkscape:randomized="0"
   d="m 448.00001,499.83472 c -1.7735,1.29317 -15.06746,-13.80517 -17.24995,-13.57199 -2.18248,0.23317 -11.98661,17.79929 -13.99328,16.90998 -2.00667,-0.88931 4.4219,-19.95139 3.12872,-21.72488 -1.29317,-1.7735 -21.40794,-1.48107 -21.64111,-3.66355 -0.23318,-2.18248 19.48935,-6.14622 20.37866,-8.15289 0.8893,-2.00667 -9.42133,-19.28036 -7.64784,-20.57353 1.7735,-1.29318 15.06746,13.80517 17.24995,13.57199 2.18248,-0.23317 11.98661,-17.79929 13.99328,-16.90998 2.00667,0.8893 -4.4219,19.95139 -3.12872,21.72488 1.29317,1.7735 21.40794,1.48107 21.64111,3.66355 0.23318,2.18248 -19.48935,6.14622 -20.37866,8.15289 -0.8893,2.00667 9.42133,19.28035 7.64784,20.57353 z" /><path
   style="opacity:1;fill:#000000;fill-opacity:1;fill-rule:nonzero;stroke:#000004;stroke-width:5.00031519;stroke-linecap:butt;stroke-linejoin:round;stroke-miterlimit:0;stroke-dasharray:none;stroke-dashoffset:0.99999976;stroke-opacity:1;paint-order:fill markers stroke"
   d="M 128.99805 376.0293 C 125.63271 377.46462 124.14505 381.03956 121.95398 383.71291 C 118.79765 387.75009 114.29453 390.82753 112.27211 395.67854 C 111.11952 399.18119 112.95951 402.91524 115.47631 405.3324 C 120.17462 410.03309 128.23114 411.3277 133.87177 407.57002 C 137.0123 405.47881 138.12515 400.92142 136.20264 397.65174 C 134.18351 393.89321 131.70261 390.20284 131.0293 385.90625 C 130.56081 382.80991 131.78148 379.54708 130.54883 376.56055 C 130.17314 376.12636 129.56002 375.92377 128.99805 376.0293 z "
   id="path4640" /><path
   inkscape:connector-curvature="0"
   style="opacity:1;fill:#000000;fill-opacity:1;fill-rule:nonzero;stroke:#000004;stroke-width:5.00031519;stroke-linecap:butt;stroke-linejoin:round;stroke-miterlimit:0;stroke-dasharray:none;stroke-dashoffset:0.99999976;stroke-opacity:1;paint-order:fill markers stroke"
   d="m 163.65691,415.26319 c -3.36534,1.43532 -4.853,5.01026 -7.04407,7.68361 -3.15633,4.03718 -7.65945,7.11462 -9.68187,11.96563 -1.15259,3.50265 0.6874,7.2367 3.2042,9.65386 4.69831,4.70069 12.75483,5.9953 18.39546,2.23762 3.14053,-2.09121 4.25338,-6.6486 2.33087,-9.91828 -2.01913,-3.75853 -4.50003,-7.4489 -5.17334,-11.74549 -0.46849,-3.09634 0.75218,-6.35917 -0.48047,-9.3457 -0.37569,-0.43419 -0.98881,-0.63678 -1.55078,-0.53125 z"
   id="path4640-7" /><path
   inkscape:connector-curvature="0"
   style="opacity:1;fill:#000000;fill-opacity:1;fill-rule:nonzero;stroke:#000004;stroke-width:5.00031519;stroke-linecap:butt;stroke-linejoin:round;stroke-miterlimit:0;stroke-dasharray:none;stroke-dashoffset:0.99999976;stroke-opacity:1;paint-order:fill markers stroke"
   d="m 114.99575,440.65161 c -3.36534,1.43532 -4.853,5.01026 -7.04407,7.68361 -3.15633,4.03718 -7.65945,7.11462 -9.681874,11.96563 -1.15259,3.50265 0.6874,7.2367 3.204204,9.65386 4.69831,4.70069 12.75483,5.9953 18.39546,2.23762 3.14053,-2.09121 4.25338,-6.6486 2.33087,-9.91828 -2.01913,-3.75853 -4.50003,-7.4489 -5.17334,-11.74549 -0.46849,-3.09634 0.75218,-6.35917 -0.48047,-9.3457 -0.37569,-0.43419 -0.98881,-0.63678 -1.55078,-0.53125 z"
   id="path4640-3" /><path
   inkscape:connector-curvature="0"
   style="opacity:1;fill:#000000;fill-opacity:1;fill-rule:nonzero;stroke:#000004;stroke-width:5.00031519;stroke-linecap:butt;stroke-linejoin:round;stroke-miterlimit:0;stroke-dasharray:none;stroke-dashoffset:0.99999976;stroke-opacity:1;paint-order:fill markers stroke"
   d="m 42.532935,459.69294 c -3.36534,1.43532 -4.853,5.01026 -7.04407,7.68361 -3.15633,4.03718 -7.659446,7.11462 -9.68187,11.96563 -1.15259,3.50265 0.6874,7.2367 3.204204,9.65386 4.698306,4.70069 12.754826,5.9953 18.395456,2.23762 3.14053,-2.09121 4.25338,-6.6486 2.33087,-9.91828 -2.01913,-3.75853 -4.50003,-7.4489 -5.17334,-11.74549 -0.46849,-3.09634 0.75218,-6.35917 -0.48047,-9.3457 -0.37569,-0.43419 -0.98881,-0.63678 -1.55078,-0.53125 z"
   id="path4640-3-5" /></svg>