<svg id="Layer_1" enable-background="new 0 0 513.418 513.418" height="512" viewBox="0 0 513.418 513.418" width="512" xmlns="http://www.w3.org/2000/svg"><g><path d="m167.276 133.989-102.138 142.843c-70.76 98.956-.108 236.586 121.678 236.586 76.438 0 133.467-54.504 146.838-120.529 7.432 1.448 15.105 2.215 22.955 2.215 66.082 0 119.844-53.762 119.844-119.844 0-66.083-53.762-119.845-119.844-119.845-40.613 0-76.565 20.31-98.251 51.302l-52.002-72.728c-9.568-13.378-29.509-13.386-39.08 0zm189.332 36.426c57.811 0 104.844 47.033 104.844 104.845s-47.033 104.844-104.844 104.844c-57.748 0-104.845-46.987-104.845-104.844.001-57.794 46.999-104.845 104.845-104.845zm-37.496 218.697c-10.987 55.335-58.724 109.306-132.298 109.306-109.802 0-173.223-123.706-109.476-212.861l102.139-142.843c3.604-5.041 11.073-5.037 14.675 0l55.746 77.963c-8.341 16.294-13.135 35.049-13.135 54.583.001 52.477 34.167 98.013 82.349 113.852z"/><path d="m356.608 223.506c-4.143 0-7.5 3.357-7.5 7.5v22.966c-6.423 2.27-11.519 7.366-13.788 13.788h-17.878c-4.143 0-7.5 3.357-7.5 7.5s3.357 7.5 7.5 7.5h17.878c3.099 8.771 11.469 15.073 21.288 15.073 12.447 0 22.573-10.126 22.573-22.573 0-9.819-6.303-18.189-15.073-21.288v-22.966c0-4.143-3.357-7.5-7.5-7.5zm7.574 51.754c0 4.176-3.397 7.573-7.573 7.573-4.177 0-7.574-3.397-7.574-7.573 0-4.177 3.397-7.574 7.574-7.574 4.175 0 7.573 3.397 7.573 7.574z"/><path d="m356.608 363.152c48.465 0 87.894-39.429 87.894-87.893 0-17.711-5.251-34.789-15.187-49.389-2.33-3.424-6.993-4.312-10.42-1.98-3.424 2.33-4.312 6.995-1.98 10.42 6.822 10.026 10.971 21.467 12.196 33.449h-6.088c-4.143 0-7.5 3.357-7.5 7.5s3.357 7.5 7.5 7.5h6.095c-3.513 34.217-30.792 61.495-65.009 65.008v-6.095c0-4.143-3.357-7.5-7.5-7.5s-7.5 3.357-7.5 7.5v6.095c-34.217-3.513-61.496-30.791-65.009-65.008h6.095c4.143 0 7.5-3.357 7.5-7.5s-3.357-7.5-7.5-7.5h-6.095c3.513-34.217 30.792-61.496 65.009-65.009v6.095c0 4.143 3.357 7.5 7.5 7.5s7.5-3.357 7.5-7.5v-6.09c10.444 1.079 20.559 4.401 29.613 9.77 3.563 2.114 8.163.938 10.276-2.626 2.112-3.563.937-8.164-2.626-10.276-13.523-8.019-29.002-12.257-44.764-12.257-48.465 0-87.894 39.429-87.894 87.894.001 48.464 39.43 87.892 87.894 87.892z"/><path d="m310.814 121.178c-3.851 1.526-5.734 5.886-4.207 9.736 1.53 3.858 5.896 5.732 9.736 4.207 31.457-12.473 45.452-52.543 24.088-82.42l-33.804-47.276c-2.429-3.398-6.372-5.425-10.548-5.425s-8.119 2.027-10.548 5.425l-33.805 47.276c-21.212 29.664-7.623 69.846 24.088 82.42 3.849 1.53 8.21-.356 9.736-4.207 1.527-3.851-.356-8.21-4.207-9.736-22.053-8.744-33.355-37.458-17.416-59.752l32.151-44.964 32.151 44.964c15.817 22.12 4.823 50.935-17.415 59.752z"/></g></svg>