<svg id="Capa_1" enable-background="new 0 0 512.003 512.003" height="512" viewBox="0 0 512.003 512.003" width="512" xmlns="http://www.w3.org/2000/svg"><g><path d="m401.559 8.58c0-4.731-3.849-8.58-8.579-8.58h-356.785c-4.73 0-8.579 3.849-8.579 8.58v346.646c0 4.142 3.358 7.5 7.5 7.5s7.5-3.358 7.5-7.5v-340.226h343.943v269.917c-.168 56.07-45.834 101.634-101.943 101.634-.377 0-.748.025-1.113.073h-193.165c-4.142 0-7.5 3.358-7.5 7.5s3.358 7.5 7.5 7.5h185.562c-3.377 52.905-47.293 94.967-100.94 95.379h-132.344v-106.778c0-4.142-3.358-7.5-7.5-7.5s-7.5 3.358-7.5 7.5v113.198c0 4.731 3.849 8.58 8.579 8.58h356.785c4.73 0 8.579-3.849 8.579-8.58 0-21.912 0-477.636 0-494.843zm-110.619 392.802c39.326-2.105 73.553-23.728 93.146-55.333-6.142 36.917-23.563 70.934-50.555 97.926-26.993 26.993-61.004 44.413-97.922 50.555 31.604-19.594 53.225-53.821 55.331-93.148zm-10.221 95.621c23.832-9.899 45.168-24.171 63.418-42.421 18.251-18.251 32.523-39.588 42.423-63.421v105.842z"/><path d="m186.976 235.824c4.142 0 7.5-3.358 7.5-7.5s-3.358-7.5-7.5-7.5h-69.021c-4.142 0-7.5 3.358-7.5 7.5s3.358 7.5 7.5 7.5z"/><path d="m338.838 248.435h-248.5c-4.142 0-7.5 3.358-7.5 7.5s3.358 7.5 7.5 7.5h248.5c4.142 0 7.5-3.358 7.5-7.5s-3.358-7.5-7.5-7.5z"/><path d="m186.976 304.917c4.142 0 7.5-3.358 7.5-7.5s-3.358-7.5-7.5-7.5h-69.021c-4.142 0-7.5 3.358-7.5 7.5s3.358 7.5 7.5 7.5z"/><path d="m346.338 325.028c0-4.142-3.358-7.5-7.5-7.5h-248.5c-4.142 0-7.5 3.358-7.5 7.5s3.358 7.5 7.5 7.5h248.5c4.142 0 7.5-3.358 7.5-7.5z"/><path d="m117.955 359.013c-4.142 0-7.5 3.358-7.5 7.5s3.358 7.5 7.5 7.5h69.021c4.142 0 7.5-3.358 7.5-7.5s-3.358-7.5-7.5-7.5z"/><path d="m131.756 56.428c4.142 0 7.5-3.358 7.5-7.5s-3.358-7.5-7.5-7.5h-53.334c-5.173 0-9.382 4.208-9.382 9.382v37.637c0 5.173 4.208 9.382 9.382 9.382h272.34c5.173 0 9.382-4.209 9.382-9.382v-37.637c0-5.173-4.208-9.382-9.382-9.382h-184.006c-4.142 0-7.5 3.358-7.5 7.5s3.358 7.5 7.5 7.5h178.387v26.401h-261.103v-26.401z"/><circle cx="90.345" cy="228.439" r="7.5"/><circle cx="90.345" cy="297.417" r="7.5"/><circle cx="90.345" cy="366.398" r="7.5"/><path d="m117.955 124.258c-4.142 0-7.5 3.358-7.5 7.5s3.358 7.5 7.5 7.5h234.685c4.142 0 7.5-3.358 7.5-7.5s-3.358-7.5-7.5-7.5z"/><path d="m76.54 166.868h276.1c4.142 0 7.5-3.358 7.5-7.5s-3.358-7.5-7.5-7.5h-276.1c-4.142 0-7.5 3.358-7.5 7.5s3.358 7.5 7.5 7.5z"/><path d="m76.54 194.478h179.459c4.142 0 7.5-3.358 7.5-7.5s-3.358-7.5-7.5-7.5h-179.459c-4.142 0-7.5 3.358-7.5 7.5s3.358 7.5 7.5 7.5z"/><path d="m449.276 55.223c-19.36 0-35.111 15.751-35.111 35.111v118.606c0 4.99 2.796 9.34 6.903 11.565v169.72c0 21.676 6.831 43.05 20.365 61.096 1.842 2.456 4.773 3.921 7.843 3.921s6.001-1.466 7.843-3.921c13.534-18.045 20.365-39.419 20.365-61.096v-90.618c0-4.142-3.358-7.5-7.5-7.5s-7.5 3.358-7.5 7.5v86.949h-26.417v-136.861h26.417v14.912c0 4.142 3.358 7.5 7.5 7.5s7.5-3.358 7.5-7.5v-44.102c4.107-2.225 6.903-6.575 6.903-11.565v-118.606c0-19.36-15.751-35.111-35.111-35.111zm-20.111 35.111c0-11.089 9.021-20.111 20.111-20.111s20.111 9.022 20.111 20.111v116.75h-40.222zm32.581 311.222c-1.614 12.357-5.85 24.147-12.471 34.712-6.621-10.565-10.856-22.355-12.47-34.712zm-25.678-179.472h26.417v12.611h-26.417z"/><path d="m449.276 96.64c-4.142 0-7.5 3.358-7.5 7.5v82.833c0 4.142 3.358 7.5 7.5 7.5s7.5-3.358 7.5-7.5v-82.833c0-4.142-3.358-7.5-7.5-7.5z"/></g></svg>