<?xml version="1.0" encoding="iso-8859-1"?>
<!-- Generator: Adobe Illustrator 18.1.1, SVG Export Plug-In . SVG Version: 6.00 Build 0)  -->
<svg version="1.1" id="Capa_1" xmlns="http://www.w3.org/2000/svg" xmlns:xlink="http://www.w3.org/1999/xlink" x="0px" y="0px"
	 viewBox="0 0 186.399 186.399" style="enable-background:new 0 0 186.399 186.399;" xml:space="preserve">
<g>
	<g>
		<path style="fill:#010002;" d="M145.86,30.849C139.195,12.322,121.76,0,101.92,0C83.28,0,66.495,11.152,59.132,28.08
			c-3.371-1.51-7.029-2.297-10.734-2.297c-14.488,0-26.284,11.731-26.409,26.195c-7.471,5.782-11.886,14.702-11.886,24.19
			c0,16.815,13.712,30.491,31.01,30.497c0.197,0,0.388,0.006,0.573,0.006s0.346,0,0.465-0.012h28.146
			c1.641,0,2.983-1.337,2.983-2.983s-1.343-2.983-2.983-2.983H41.995H40.67c-13.563,0-24.601-11.003-24.601-24.524
			c0-8.079,3.986-15.657,10.663-20.263l1.366-1.283l-0.143-2.434c0-11.271,9.171-20.437,20.442-20.437
			c3.777,0,7.482,1.062,10.716,3.067l3.162,1.963l1.223-3.509c5.71-16.325,21.153-27.298,38.415-27.298
			c17.829,0,33.438,11.415,38.832,28.402l0.561,1.748l1.814,0.292c15.764,2.548,27.209,15.985,27.209,31.947
			c0,17.829-14.547,32.334-32.412,32.334h-21.815c-1.641,0-2.983,1.337-2.983,2.983s1.343,2.983,2.983,2.983h21.815
			c21.164,0,38.379-17.179,38.379-38.301C176.291,50.062,163.6,34.566,145.86,30.849z"/>
		<path style="fill:#010002;" d="M78.148,123.711l24.064-40.342c0.841-1.414,0.37-3.246-1.044-4.093
			c-1.402-0.841-3.246-0.388-4.099,1.032l-29.447,49.364h40.611L81.185,175.02l-3.192-7.942c-0.621-1.528-2.363-2.261-3.878-1.653
			c-1.533,0.615-2.273,2.357-1.653,3.884l6.886,17.089l25.037-15.681c1.39-0.871,1.826-2.715,0.943-4.111
			c-0.871-1.396-2.709-1.814-4.105-0.949l-11.97,7.488l29.494-49.453H78.142v0.018H78.148z"/>
	</g>
</g>
<g>
</g>
<g>
</g>
<g>
</g>
<g>
</g>
<g>
</g>
<g>
</g>
<g>
</g>
<g>
</g>
<g>
</g>
<g>
</g>
<g>
</g>
<g>
</g>
<g>
</g>
<g>
</g>
<g>
</g>
</svg>
