<svg clip-rule="evenodd" fill-rule="evenodd" height="512" image-rendering="optimizeQuality" shape-rendering="geometricPrecision" text-rendering="geometricPrecision" viewBox="0 0 43.3492 43.3492" width="512" xmlns="http://www.w3.org/2000/svg"><g id="Layer_x0020_1"><g id="_209155976"><path id="_209157368" d="m33.1072 31.7476 1.1659 1.8613c.0953.1518.0964.3451.0029.4979l-1.1854 1.9411 6.2315-2.089c.0043-.002.0086-.003.013-.0049l.2427-.073zm-1.097 5.6352c-.1415 0-.2786-.0631-.3702-.1784-.1239-.1548-.1375-.3717-.0338-.5413l1.7095-2.7998-1.7067-2.724c-.1058-.1686-.0944-.3864.0286-.5432.1231-.1567.3313-.2198.5205-.1577l9.1354 3.0108c.196.0651.3275.2494.3251.4555-.0024.206-.1383.3874-.3356.4476l-1.6664.5057-7.4561 2.5002c-.0494.0167-.1002.0246-.1503.0246z"/><path id="_209157488" d="m17.9912 35.0118h-12.5718c-.0526 0-.1048-.0089-.1545-.0256-.565-.1952-.9031-.632-.8824-1.1407.0202-.4969.381-.907.9194-1.045.0384-.0099.0779-.0148.1176-.0148h12.5718c.2613 0 .4731.212.4731.4732 0 .2613-.2118.4733-.4731.4733h-12.5023c-.1075.0394-.1589.1034-.1609.1518-.0021.0522.0536.1242.1802.1814h12.4829c.2614 0 .4732.212.4732.4732s-.2118.4732-.4732.4732z"/><path id="_209157080" d="m33.4577 35.0118h-10.5715c-.2614 0-.4733-.212-.4733-.4732 0-.2613.2119-.4732.4733-.4732h10.5715c.2614 0 .4733.212.4733.4732s-.2119.4732-.4733.4732z"/><path id="_209157200" d="m33.4954 33.7322h-10.6081c-.2613 0-.4732-.212-.4732-.4733 0-.2612.2119-.4732.4732-.4732h10.6081c.2613 0 .4732.212.4732.4732 0 .2613-.2119.4733-.4732.4733z"/><path id="_209157248" d="m7.1687 33.7322c-.1323 0-.2639-.0553-.3574-.1627l-3.0236-3.4811c-.0778-.0887-.116-.2001-.116-.3096 0-.1321.0552-.2642.1629-.3578.1973-.1706.4962-.1499.6676.0473l3.0235 3.4801c.0778.0897.116.2001.116.3105 0 .1322-.0552.2643-.1629.3579-.0895.0769-.2001.1154-.3101.1154z"/><path id="_209157608" d="m4.1447 38.4929c-.1101 0-.2207-.0385-.3104-.1163-.1076-.0937-.1627-.2248-.1626-.3579.0001-.1095.0383-.2198.1162-.3096l3.0279-3.4811c.1715-.1971.4704-.2178.6677-.0463.1076.0937.1627.2258.1626.3579-.0001.1094-.0383.2198-.1162.3095l-3.0279 3.4811c-.0936.1075-.2251.1627-.3573.1627z"/><path id="_209157320" d="m10.7401 30.252h-6.5952c-.2613 0-.4732-.2119-.4732-.4732 0-.2612.2119-.4732.4732-.4732h6.5952c.2613 0 .4732.212.4732.4732 0 .2613-.2119.4732-.4732.4732z"/><path id="_209156384" d="m10.7401 38.4929h-6.5952c-.2613 0-.4732-.212-.4732-.4732 0-.2613.2119-.4732.4732-.4732h6.5952c.2613 0 .4732.2119.4732.4732 0 .2612-.2119.4732-.4732.4732z"/><path id="_209156744" d="m13.7638 33.7322c-.1323 0-.2639-.0553-.3575-.1627l-3.0235-3.4811c-.0778-.0887-.116-.2001-.116-.3096 0-.1321.0553-.2642.1629-.3578.1973-.1706.4962-.1499.6675.0473l3.0236 3.4801c.0779.0897.116.2001.116.3105 0 .1322-.0552.2643-.1628.3579-.0896.0769-.2002.1154-.3102.1154z"/><path id="_209156552" d="m10.7399 38.4929c-.1101 0-.2208-.0385-.3105-.1163-.1075-.0937-.1627-.2248-.1626-.3579 0-.1095.0383-.2198.1162-.3096l3.0279-3.4811c.1715-.1971.4704-.2178.6676-.0463.1077.0937.1627.2258.1627.3579-.0001.1094-.0384.2198-.1163.3095l-3.0279 3.4811c-.0935.1075-.2249.1627-.3571.1627z"/><path id="_209156840" d="m10.7249 33.7322c-.1326 0-.2644-.0553-.358-.1637l-2.0687-2.3898c-.0775-.0897-.1154-.2001-.1154-.3095.0001-.1331.0555-.2652.1636-.3579.1976-.1715.4964-.1499.6675.0473l2.0685 2.3908c.0777.0897.1156.2001.1155.3095-.0001.1331-.0555.2643-.1635.3579-.0896.0779-.1998.1154-.3095.1154z"/><path id="_209156864" d="m8.6558 37.4025c-.1097 0-.2199-.0384-.3094-.1153-.1081-.0937-.1635-.2258-.1636-.3579 0-.1094.0379-.2198.1154-.3095l2.0687-2.3908c.171-.1972.4699-.2188.6675-.0483.108.0937.1634.2258.1635.3579.0001.1104-.0378.2208-.1155.3095l-2.0685 2.3908c-.0936.1084-.2255.1636-.3581.1636z"/><path id="_209156312" d="m20.4397 31.8422c-1.1341 0-2.0569.9228-2.0569 2.0566 0 1.1347.9228 2.0575 2.0569 2.0575 1.1343 0 2.057-.9228 2.057-2.0575 0-1.1338-.9227-2.0566-2.057-2.0566zm0 5.0605c-1.656 0-3.0033-1.3477-3.0033-3.0039 0-1.6563 1.3473-3.003 3.0033-3.003 1.6562 0 3.0035 1.3467 3.0035 3.003 0 1.6562-1.3473 3.0039-3.0035 3.0039z"/><path id="_209156696" d="m20.8576 4.1157h.0005c-.0001 0-.0003 0-.0005 0zm10.3466 1.2461c.0012 0 .0024.0001.0037.0001-.0013-.0001-.0025 0-.0037-.0001zm-11.6895 26.6549c-.0928 0-.1865-.0276-.2686-.0837-.2151-.1489-.2689-.4437-.1203-.6586.2449-.3549.248-1.8012-.0521-2.6963-1.6845-1.0638-2.532-2.0921-2.5761-3.1302-2.8471-1.3339-4.642-3.2839-5.3377-5.7989-.3633-.8183-.6746-.9809-.7541-.972-.1076.0108-.4705.3086-.719 1.4886-.0382.1814-.1785.3244-.3591.3648-.181.0404-.3685-.0276-.4806-.1755l-.1664-.2179c-.5788-.7581-1.168-1.529-1.539-2.3177-.0361.7956.0725 1.7923.3268 2.9665.0443.204-.0507.413-.2336.5146-.1829.1005-.4105.07-.5599-.076-.7751-.7591-1.3345-1.6217-1.6771-2.5839.1251.9652.3788 2.0437.7608 3.2327.0665.207-.0168.4328-.202.5471-.1853.1144-.4245.0878-.58-.0651-2.2745-2.231-3.9889-6.5678-2.9208-9.9621.9299-2.9567 2.9871-4.5882 4.5492-5.4371 1.9974-1.0845 4.3827-1.5172 6.5448-1.187 3.7115.5659 6.0212 3.1745 6.028 6.8064.0016.8587.1933 1.4404.4884 1.4818.5209.073 1.6599-.979 2.1033-2.5268l.7243-2.5277c.1487-.5186.3101-.978.4525-1.3822.102-.2909.1942-.5521.2656-.7887-.1736.1153-.3463.1982-.5191.2504-.0148.0049-.0299.0089-.0451.0118-.3731.073-.6683.0947-.9023.0661-.2522-.0365-.9934-.1429-1.1854-.7325-.1687-.5176.2065-1.0056.5441-1.3487.0223-.2258-.1364-.8192-.2678-.9789-.0145-.0119-.0283-.0237-.0415-.0375-.3315-.3303-.6536-.7296-.5298-1.1821.1308-.4781.6559-.6575 1.2839-.8202.0622-.0306.0961-.0562.1133-.071-.0019-.0049-.0043-.0118-.0075-.0187-.0227-.0513-.0361-.1065-.0397-.1617-.0142-.2258-.0577-.9129.4357-1.2343.4911-.3194 1.0945-.0049 1.2928.0986.0041.002.0084.0039.0125.0069.0615.0345.1094.0562.1453.07.0179-.0473.0434-.0917.0754-.1321.345-.4249.7211-.632 1.1205-.6172.3859.0158.7445.2416 1.0676.6734.1649.0699.3312.07.5238.001.7909-.5748 1.6252-.4299 2.2979.4032.0091.0108.0177.0227.0257.0345.4157.6241.2849 1.118-.0317 1.6109 1.0539.3539 2.5282 1.2106 3.0694 1.8721.125.1519.1421.3668.0428.5373-.0979.1686-.2885.2593-.4807.2297-.229-.0177-1.1712.2209-2.0305.4782.6619.7562 1.0008 1.531 1.0093 2.3099.042.555-.105.9661-.437 1.2225-.291.2237-.6915.2957-1.2127.2149.1518.3026.4205.7256.8901 1.3053.0139.0167.0268.0355.0381.0542.6095 1.0154 1.0348 1.9362 1.2647 2.7368.7793 2.1501.104 5.3749-1.8086 8.6322-1.2276 2.091-3.1622 4.4157-5.0352 4.9284-.2463.904-.8663 1.3259-2.1633 1.4511.1544.6536.0767 1.5508-.2287 2.8521-.0597.2544-.3143.4122-.5689.352-.2543-.0592-.4122-.3145-.3525-.5688.3548-1.5114.375-2.3701.0656-2.7871-.1057-.1419-.1232-.3302-.0454-.49.0777-.1587.2377-.2612.4146-.2652 1.8528-.0414 1.9237-.4722 2.0136-1.0184.0331-.2011.1913-.3588.3927-.3904 1.3349-.2119 3.2202-2.0377 4.6913-4.5428 1.7493-2.9793 2.4122-5.9852 1.7302-7.8446-.0041-.0108-.0077-.0217-.011-.0335-.2038-.7167-.592-1.5567-1.1537-2.4962-.9091-1.1268-1.3114-1.9451-1.2659-2.5721.0107-.1469.0895-.281.2129-.3619.1233-.0808.2774-.0995.4165-.0502.8836.3115 1.114.1626 1.1375.1439.0606-.0463.0875-.205.0704-.4131-.0011-.0128-.0016-.0246-.0016-.0374-.0029-.7039-.4267-1.4433-1.2595-2.1975-.1243-.1124-.1797-.283-.1456-.4466.0339-.1646.1521-.2978.3107-.352.0166-.0059 1.107-.3707 2.0417-.5925-.8623-.5777-2.0815-1.1071-2.3837-1.0785-.1896.0207-.3728-.0759-.4646-.2425-.0919-.1676-.074-.3737.0449-.5235.6208-.7789.6003-.8538.4487-1.0825-.4127-.5028-.6898-.4506-1.0272-.1903-.0332.0257-.0696.0473-.1083.0631-.5141.2129-1.0288.1863-1.4884-.0759-.0619-.0345-.1152-.0838-.1555-.143-.1819-.2642-.3281-.3618-.3981-.3637-.0552-.0001-.1567.0512-.2923.2021-.109.3006-.3023.4406-.4534.5057-.2857.1222-.6172.0749-1.0136-.1459-.1676-.0868-.2694-.1144-.3221-.1232-.0125.0473-.0271.137-.022.2937.1438.42.0428.9465-.6519 1.259-.0249.0119-.0508.0207-.0773.0276-.3127.0799-.4864.139-.5828.1804.0395.0532.1034.1302.2059.2327.417.3707.816 1.6898.4532 2.2271-.0179.0266-.0386.0512-.0616.0739-.2349.2287-.3236.3717-.3567.4417.0566.0276.1714.069.3866.0995.063.0079.232.0128.5672-.0512.1956-.0661.5166-.2662.9635-.838.1088-.139.2863-.2061.4602-.1735.1737.0325.3148.1597.3657.3293.2174.7226-.0503 1.4827-.3891 2.4459-.138.3923-.2945.837-.4355 1.3289l-.7243 2.5278c-.5439 1.8988-1.9842 3.3677-3.1438 3.2041-.4855-.0681-1.3005-.4723-1.3041-2.4174-.0059-3.1794-1.9589-5.3749-5.2243-5.8728-3.8318-.5856-8.6382 1.4887-10.0485 5.9724-.7268 2.3099-.0018 5.1225 1.2933 7.2333-.5584-2.6668-.3352-4.671.67-6.0897.1301-.1834.3717-.2504.5777-.1587.2059.0906.319.3145.2706.5343-.4262 1.9333-.2741 3.557.4673 4.9155-.1655-1.669.0622-2.8619.686-3.6201.1398-.1705.3787-.2218.576-.1232.1973.0976.3008.3195.2497.5334-.2274.9533.4718 2.0447 1.2807 3.1291.3769-.978.8823-1.255 1.2792-1.2954.4572-.0464 1.1292.1863 1.7315 1.5655.0092.0207.0169.0424.023.0651.6336 2.3296 2.3534 4.1298 5.1116 5.3513.1928.0848.3058.2879.2772.4968-.1037.7572.6769 1.6721 2.2575 2.6451.0864.0533.1534.1332.1911.2278.417 1.0401.502 3.0029.0033 3.7246-.0918.1331-.2396.205-.3897.205z"/><path id="_209156288" d="m20.4397 43.3493c-.2612 0-.4731-.212-.4731-.4732v-6.4466c0-.2613.2119-.4732.4731-.4732.2614 0 .4732.2119.4732.4732v6.4466c0 .2612-.2118.4732-.4732.4732z"/><path id="_209156768" d="m30.4447 40.4005h-20.0098c-.2613 0-.4733-.2119-.4733-.4732 0-.2622.212-.4732.4733-.4732h20.0098c.2614 0 .4732.211.4732.4732 0 .2613-.2118.4732-.4732.4732z"/><path id="_209156336" d="m13.4949 41.9947c-.2614 0-.4732-.211-.4732-.4732v-2.9172c0-.2612.2118-.4732.4732-.4732.2613 0 .4732.212.4732.4732v2.9172c0 .2622-.2119.4732-.4732.4732z"/><path id="_209156648" d="m27.3847 41.9947c-.2614 0-.4732-.211-.4732-.4732v-2.9172c0-.2612.2118-.4732.4732-.4732.2613 0 .4732.212.4732.4732v2.9172c0 .2622-.2119.4732-.4732.4732z"/><path id="_209155472" d="m25.6818 4.6678h-.0005c-.2614 0-.4733-.2119-.4733-.4732s.2119-.4732.4733-.4732c.2612 0 .4734.212.4734.4732 0 .2613-.2116.4732-.4729.4732z"/></g></g></svg>