<?xml version="1.0" encoding="UTF-8" standalone="no"?>
<!-- Created with Inkscape (http://www.inkscape.org/) -->

<svg
   version="1.1"
   id="svg2379"
   xml:space="preserve"
   width="682.66669"
   height="682.66669"
   viewBox="0 0 682.66669 682.66669"
   xmlns="http://www.w3.org/2000/svg"
   xmlns:svg="http://www.w3.org/2000/svg"><defs
     id="defs2383"><clipPath
       clipPathUnits="userSpaceOnUse"
       id="clipPath2393"><path
         d="M 0,512 H 512 V 0 H 0 Z"
         id="path2391" /></clipPath></defs><g
     id="g2385"
     transform="matrix(1.3333333,0,0,-1.3333333,0,682.66667)"><g
       id="g2387"><g
         id="g2389"
         clip-path="url(#clipPath2393)"><g
           id="g2395"
           transform="translate(271.0391,86.3105)"><path
             d="m 0,0 -5.316,2.202 c -9.986,4.136 -21.539,-0.648 -25.675,-10.635 -4.136,-9.985 0.649,-21.538 10.634,-25.674 l 5.317,-2.203 5.318,-2.202 C 0.263,-42.647 5.048,-54.2 0.912,-64.186 -3.224,-74.172 -14.777,-78.957 -24.763,-74.821 l -5.316,2.202"
             style="fill:none;stroke:#000000;stroke-width:20;stroke-linecap:round;stroke-linejoin:round;stroke-miterlimit:22.926;stroke-dasharray:none;stroke-opacity:1"
             id="path2397" /></g><g
           id="g2399"
           transform="translate(501.999,216.001)"><path
             d="M 0,0 H -40 V 80 H 0"
             style="fill:none;stroke:#000000;stroke-width:20;stroke-linecap:round;stroke-linejoin:round;stroke-miterlimit:22.926;stroke-dasharray:none;stroke-opacity:1"
             id="path2401" /></g><g
           id="g2403"
           transform="translate(466.999,256.001)"><path
             d="M 0,0 H 15"
             style="fill:none;stroke:#000000;stroke-width:20;stroke-linecap:round;stroke-linejoin:round;stroke-miterlimit:22.926;stroke-dasharray:none;stroke-opacity:1"
             id="path2405" /></g><g
           id="g2407"
           transform="translate(233.499,422.001)"><path
             d="M 0,0 V 80 L 45,0 v 80"
             style="fill:none;stroke:#000000;stroke-width:20;stroke-linecap:round;stroke-linejoin:round;stroke-miterlimit:22.926;stroke-dasharray:none;stroke-opacity:1"
             id="path2409" /></g><g
           id="g2411"
           transform="translate(10,296.001)"><path
             d="M 0,0 6.25,-80 30,-35 53.75,-80 60,0"
             style="fill:none;stroke:#000000;stroke-width:20;stroke-linecap:round;stroke-linejoin:round;stroke-miterlimit:22.926;stroke-dasharray:none;stroke-opacity:1"
             id="path2413" /></g><g
           id="g2415"
           transform="translate(225.1162,286.8848)"><path
             d="M 0,0 30.883,104.616 61.767,0 166.383,-30.884 61.767,-61.767 30.883,-166.384 0,-61.767 -104.617,-30.884 Z"
             style="fill:none;stroke:#000000;stroke-width:20;stroke-linecap:round;stroke-linejoin:round;stroke-miterlimit:22.926;stroke-dasharray:none;stroke-opacity:1"
             id="path2417" /></g><g
           id="g2419"
           transform="translate(193.1279,277.5889)"><path
             d="M 0,0 -27.129,68.412 41.283,41.283 m 0,-125.742 -68.412,-27.129 L 0,-43.176 m 125.743,0 27.128,-68.412 -68.411,27.129 m 0,125.742 68.411,27.129 L 125.743,0"
             style="fill:none;stroke:#000000;stroke-width:20;stroke-linecap:round;stroke-linejoin:round;stroke-miterlimit:22.926;stroke-dasharray:none;stroke-opacity:1"
             id="path2421" /></g></g></g></g></svg>
