<?xml version="1.0" encoding="iso-8859-1"?>
<!-- Generator: Adobe Illustrator 18.0.0, SVG Export Plug-In . SVG Version: 6.00 Build 0)  -->
<!DOCTYPE svg PUBLIC "-//W3C//DTD SVG 1.1//EN" "http://www.w3.org/Graphics/SVG/1.1/DTD/svg11.dtd">
<svg version="1.1" id="Capa_1" xmlns="http://www.w3.org/2000/svg" xmlns:xlink="http://www.w3.org/1999/xlink" x="0px" y="0px"
	 viewBox="0 0 58.5 58.5" style="enable-background:new 0 0 58.5 58.5;" xml:space="preserve">
<g>
	<path d="M54.5,42.082c-0.43-4.107-3.853-7.332-7.954-7.332c-2.565,0-4.984,1.286-6.479,3.402c-0.292-0.051-0.588-0.076-0.884-0.076
		c-2.32,0-4.381,1.577-5.066,3.813C32.209,43.02,31,45.13,31,47.392c0,3.506,2.785,6.358,6.208,6.358h10.774
		c0.063,0,0.124-0.004,0.172-0.008c0.062,0.004,0.124,0.008,0.188,0.008h4.31c3.225,0,5.849-2.687,5.849-5.989
		C58.5,45.161,56.858,42.888,54.5,42.082z M52.651,51.75L48.3,51.747l-0.186-0.006L37.208,51.75c-2.32,0-4.208-1.955-4.208-4.358
		c0-1.666,0.948-3.21,2.417-3.935l0.435-0.214l0.102-0.475c0.331-1.56,1.689-2.692,3.229-2.692c0.344,0,0.687,0.057,1.019,0.169
		l0.777,0.261l0.409-0.711c1.096-1.906,3.023-3.045,5.158-3.045c3.265,0,5.955,2.747,5.999,6.123l0.011,0.813l0.799,0.155
		c1.822,0.354,3.146,2.002,3.146,3.919C56.5,49.96,54.773,51.75,52.651,51.75z"/>
	<rect y="4.75" width="17" height="8"/>
	<rect x="34" y="4.75" width="17" height="8"/>
	<rect x="19" y="4.75" width="13" height="8"/>
	<path d="M28.744,23.652c-1.503,0-2.782,0.528-3.837,1.583c-1.056,1.056-1.583,2.34-1.583,3.854c0,1.514,0.527,2.793,1.583,3.837
		c1.055,1.044,2.34,1.565,3.854,1.565c1.514,0,2.793-0.521,3.837-1.565s1.565-2.34,1.565-3.889s-0.527-2.833-1.583-3.854
		C31.526,24.163,30.247,23.652,28.744,23.652z"/>
	<path d="M34.14,36.835c0.013-0.21,0.024-0.421,0.024-0.642v-2.148c-1.445,1.561-3.217,2.341-5.316,2.341s-3.86-0.711-5.282-2.134
		c-1.423-1.423-2.134-3.149-2.134-5.18s0.711-3.756,2.134-5.179c1.422-1.423,3.148-2.134,5.179-2.134s3.757,0.711,5.18,2.134
		c1.422,1.423,2.134,3.154,2.134,5.196v6.627c0.839-0.348,1.733-0.576,2.665-0.628c2.066-2.127,4.894-3.339,7.823-3.339
		c1.567,0,3.078,0.352,4.454,0.983V15.75c0-0.553-0.448-1-1-1H1c-0.552,0-1,0.447-1,1v35c0,0.553,0.448,1,1,1h28.066
		C28.388,50.447,28,48.965,28,47.392c0-0.95,0.158-1.879,0.433-2.768c-0.254,0.016-0.507,0.035-0.773,0.035h-0.603v-1.893h0.74
		c0.538,0,1.046-0.074,1.539-0.183c0.599-1.008,1.375-1.913,2.321-2.644C32.236,38.69,33.102,37.644,34.14,36.835z M18.058,44.828
		h-2V23.75l-5.058,3v-2l5.058-3h2V44.828z"/>
</g>
<g>
</g>
<g>
</g>
<g>
</g>
<g>
</g>
<g>
</g>
<g>
</g>
<g>
</g>
<g>
</g>
<g>
</g>
<g>
</g>
<g>
</g>
<g>
</g>
<g>
</g>
<g>
</g>
<g>
</g>
</svg>
